<?xml version="1.0" encoding="UTF-8"?><svg xmlns="http://www.w3.org/2000/svg" xmlns:xlink="http://www.w3.org/1999/xlink" contentScriptType="text/ecmascript" width="810" zoomAndPan="magnify" contentStyleType="text/css" viewBox="0 0 810 809.999993" height="809.999993" preserveAspectRatio="xMidYMid meet" version="1.0"><defs><clipPath id="clip-0"><path d="M 106 403 L 691 403 L 691 705.75 L 106 705.75 Z M 106 403 " clip-rule="nonzero"/></clipPath></defs><g clip-path="url(#clip-0)"><path fill="rgb(97.24884%, 72.158813%, 34.509277%)" d="M 690.289062 554.699219 C 690.289062 557.171875 690.171875 559.644531 689.9375 562.113281 C 689.703125 564.582031 689.351562 567.046875 688.882812 569.507812 C 688.414062 571.96875 687.832031 574.421875 687.128906 576.867188 C 686.429688 579.3125 685.613281 581.746094 684.683594 584.171875 C 683.75 586.597656 682.707031 589.007812 681.546875 591.40625 C 680.386719 593.804688 679.113281 596.1875 677.726562 598.550781 C 676.339844 600.917969 674.84375 603.265625 673.234375 605.59375 C 671.625 607.917969 669.910156 610.226562 668.082031 612.511719 C 666.253906 614.792969 664.320312 617.054688 662.28125 619.289062 C 660.238281 621.523438 658.09375 623.730469 655.84375 625.910156 C 653.589844 628.089844 651.238281 630.242188 648.785156 632.363281 C 646.328125 634.484375 643.777344 636.570312 641.125 638.625 C 638.472656 640.683594 635.722656 642.703125 632.878906 644.6875 C 630.035156 646.675781 627.097656 648.621094 624.070312 650.535156 C 621.042969 652.445312 617.925781 654.316406 614.71875 656.148438 C 611.511719 657.980469 608.222656 659.769531 604.84375 661.519531 C 601.46875 663.265625 598.011719 664.972656 594.476562 666.632812 C 590.9375 668.292969 587.324219 669.90625 583.632812 671.472656 C 579.941406 673.042969 576.179688 674.5625 572.347656 676.035156 C 568.511719 677.507812 564.609375 678.929688 560.640625 680.304688 C 556.671875 681.679688 552.636719 683 548.542969 684.273438 C 544.449219 685.542969 540.296875 686.761719 536.085938 687.925781 C 531.875 689.09375 527.609375 690.203125 523.296875 691.261719 C 518.980469 692.316406 514.617188 693.320312 510.207031 694.265625 C 505.792969 695.210938 501.339844 696.101562 496.847656 696.933594 C 492.351562 697.765625 487.820312 698.542969 483.25 699.257812 C 478.683594 699.976562 474.082031 700.636719 469.453125 701.238281 C 464.820312 701.835938 460.164062 702.378906 455.480469 702.859375 C 450.796875 703.34375 446.097656 703.765625 441.375 704.128906 C 436.652344 704.492188 431.914062 704.792969 427.164062 705.035156 C 422.410156 705.277344 417.652344 705.460938 412.882812 705.582031 C 408.117188 705.703125 403.34375 705.765625 398.570312 705.765625 C 393.796875 705.765625 389.023438 705.703125 384.257812 705.582031 C 379.488281 705.460938 374.726562 705.277344 369.976562 705.035156 C 365.226562 704.792969 360.488281 704.492188 355.765625 704.128906 C 351.042969 703.765625 346.339844 703.34375 341.660156 702.859375 C 336.976562 702.378906 332.320312 701.835938 327.6875 701.238281 C 323.058594 700.636719 318.457031 699.976562 313.886719 699.257812 C 309.320312 698.542969 304.789062 697.765625 300.292969 696.933594 C 295.796875 696.101562 291.34375 695.210938 286.933594 694.265625 C 282.523438 693.320312 278.160156 692.316406 273.84375 691.261719 C 269.527344 690.203125 265.265625 689.09375 261.054688 687.925781 C 256.84375 686.761719 252.691406 685.542969 248.597656 684.273438 C 244.503906 683 240.46875 681.679688 236.5 680.304688 C 232.53125 678.929688 228.628906 677.507812 224.792969 676.035156 C 220.960938 674.5625 217.195312 673.042969 213.507812 671.472656 C 209.816406 669.90625 206.203125 668.292969 202.664062 666.632812 C 199.125 664.972656 195.671875 663.265625 192.292969 661.519531 C 188.917969 659.769531 185.628906 657.980469 182.421875 656.148438 C 179.214844 654.316406 176.097656 652.445312 173.070312 650.535156 C 170.039062 648.625 167.105469 646.675781 164.261719 644.6875 C 161.414062 642.703125 158.667969 640.683594 156.015625 638.625 C 153.363281 636.570312 150.808594 634.484375 148.355469 632.363281 C 145.902344 630.242188 143.546875 628.089844 141.296875 625.910156 C 139.046875 623.730469 136.902344 621.523438 134.859375 619.289062 C 132.820312 617.054688 130.886719 614.792969 129.058594 612.511719 C 127.230469 610.226562 125.511719 607.917969 123.90625 605.59375 C 122.296875 603.265625 120.800781 600.917969 119.414062 598.550781 C 118.027344 596.1875 116.753906 593.804688 115.59375 591.40625 C 114.433594 589.007812 113.390625 586.597656 112.457031 584.171875 C 111.527344 581.746094 110.710938 579.3125 110.007812 576.867188 C 109.308594 574.421875 108.726562 571.96875 108.257812 569.507812 C 107.789062 567.046875 107.4375 564.582031 107.203125 562.113281 C 106.96875 559.644531 106.851562 557.171875 106.851562 554.699219 C 106.851562 552.226562 106.96875 549.757812 107.203125 547.289062 C 107.4375 544.820312 107.789062 542.355469 108.257812 539.894531 C 108.726562 537.433594 109.308594 534.980469 110.007812 532.535156 C 110.710938 530.089844 111.527344 527.65625 112.457031 525.230469 C 113.390625 522.804688 114.433594 520.394531 115.59375 517.996094 C 116.753906 515.597656 118.027344 513.214844 119.414062 510.847656 C 120.800781 508.484375 122.296875 506.136719 123.90625 503.808594 C 125.511719 501.480469 127.230469 499.175781 129.058594 496.890625 C 130.882812 494.605469 132.820312 492.347656 134.859375 490.113281 C 136.902344 487.878906 139.046875 485.671875 141.296875 483.488281 C 143.546875 481.308594 145.902344 479.160156 148.355469 477.039062 C 150.808594 474.917969 153.363281 472.828125 156.015625 470.773438 C 158.667969 468.71875 161.414062 466.699219 164.261719 464.710938 C 167.105469 462.726562 170.039062 460.777344 173.070312 458.867188 C 176.097656 456.957031 179.214844 455.085938 182.421875 453.253906 C 185.628906 451.421875 188.917969 449.628906 192.292969 447.882812 C 195.671875 446.132812 199.125 444.429688 202.664062 442.769531 C 206.203125 441.109375 209.816406 439.496094 213.507812 437.925781 C 217.195312 436.359375 220.960938 434.839844 224.792969 433.363281 C 228.628906 431.890625 232.53125 430.46875 236.5 429.097656 C 240.46875 427.722656 244.503906 426.398438 248.597656 425.128906 C 252.691406 423.859375 256.84375 422.640625 261.054688 421.472656 C 265.265625 420.308594 269.527344 419.199219 273.84375 418.140625 C 278.160156 417.082031 282.523438 416.082031 286.933594 415.136719 C 291.34375 414.191406 295.796875 413.300781 300.292969 412.46875 C 304.789062 411.636719 309.320312 410.859375 313.886719 410.140625 C 318.457031 409.425781 323.058594 408.765625 327.6875 408.164062 C 332.320312 407.5625 336.976562 407.023438 341.660156 406.539062 C 346.339844 406.058594 351.042969 405.636719 355.765625 405.273438 C 360.488281 404.910156 365.226562 404.605469 369.976562 404.363281 C 374.726562 404.121094 379.488281 403.941406 384.257812 403.820312 C 389.023438 403.699219 393.796875 403.636719 398.570312 403.636719 C 403.34375 403.636719 408.117188 403.699219 412.882812 403.820312 C 417.652344 403.941406 422.410156 404.121094 427.164062 404.363281 C 431.914062 404.605469 436.652344 404.910156 441.375 405.273438 C 446.097656 405.636719 450.796875 406.058594 455.480469 406.539062 C 460.164062 407.023438 464.820312 407.5625 469.453125 408.164062 C 474.082031 408.765625 478.683594 409.425781 483.25 410.140625 C 487.820312 410.859375 492.351562 411.636719 496.847656 412.46875 C 501.339844 413.300781 505.792969 414.191406 510.207031 415.136719 C 514.617188 416.082031 518.980469 417.082031 523.296875 418.140625 C 527.609375 419.199219 531.875 420.308594 536.085938 421.472656 C 540.296875 422.640625 544.449219 423.859375 548.542969 425.128906 C 552.636719 426.398438 556.671875 427.722656 560.640625 429.097656 C 564.609375 430.46875 568.511719 431.890625 572.347656 433.363281 C 576.179688 434.839844 579.941406 436.359375 583.632812 437.925781 C 587.324219 439.496094 590.9375 441.109375 594.476562 442.769531 C 598.011719 444.429688 601.46875 446.132812 604.84375 447.882812 C 608.222656 449.628906 611.511719 451.421875 614.71875 453.253906 C 617.925781 455.085938 621.042969 456.957031 624.070312 458.867188 C 627.097656 460.777344 630.035156 462.726562 632.878906 464.710938 C 635.722656 466.699219 638.472656 468.71875 641.125 470.773438 C 643.777344 472.828125 646.328125 474.917969 648.785156 477.039062 C 651.238281 479.160156 653.589844 481.308594 655.84375 483.488281 C 658.09375 485.671875 660.238281 487.878906 662.28125 490.113281 C 664.320312 492.347656 666.253906 494.605469 668.082031 496.890625 C 669.910156 499.175781 671.625 501.480469 673.234375 503.808594 C 674.84375 506.136719 676.339844 508.484375 677.726562 510.847656 C 679.113281 513.214844 680.386719 515.597656 681.546875 517.996094 C 682.707031 520.394531 683.75 522.804688 684.683594 525.230469 C 685.613281 527.65625 686.429688 530.089844 687.128906 532.535156 C 687.832031 534.980469 688.414062 537.433594 688.882812 539.894531 C 689.351562 542.355469 689.703125 544.820312 689.9375 547.289062 C 690.171875 549.757812 690.289062 552.226562 690.289062 554.699219 Z M 690.289062 554.699219 " fill-opacity="1" fill-rule="nonzero"/></g><path fill="rgb(0%, 14.898682%, 16.859436%)" d="M 690.289062 525.011719 C 690.289062 527.585938 690.171875 530.160156 689.9375 532.730469 C 689.703125 535.300781 689.351562 537.867188 688.882812 540.429688 C 688.414062 542.992188 687.832031 545.546875 687.128906 548.09375 C 686.429688 550.640625 685.613281 553.175781 684.683594 555.699219 C 683.75 558.222656 682.707031 560.734375 681.546875 563.230469 C 680.386719 565.730469 679.113281 568.210938 677.726562 570.671875 C 676.339844 573.136719 674.84375 575.582031 673.234375 578.003906 C 671.625 580.425781 669.910156 582.828125 668.082031 585.207031 C 666.253906 587.585938 664.320312 589.9375 662.28125 592.265625 C 660.238281 594.59375 658.09375 596.890625 655.84375 599.160156 C 653.589844 601.433594 651.238281 603.671875 648.785156 605.878906 C 646.328125 608.085938 643.777344 610.261719 641.125 612.402344 C 638.472656 614.542969 635.722656 616.644531 632.878906 618.714844 C 630.035156 620.78125 627.097656 622.808594 624.070312 624.800781 C 621.042969 626.789062 617.925781 628.738281 614.71875 630.644531 C 611.511719 632.554688 608.222656 634.417969 604.84375 636.238281 C 601.46875 638.058594 598.011719 639.832031 594.476562 641.5625 C 590.9375 643.289062 587.324219 644.972656 583.632812 646.605469 C 579.941406 648.238281 576.179688 649.820312 572.347656 651.355469 C 568.511719 652.886719 564.609375 654.371094 560.640625 655.800781 C 556.671875 657.230469 552.636719 658.605469 548.542969 659.929688 C 544.449219 661.253906 540.296875 662.523438 536.085938 663.734375 C 531.875 664.949219 527.609375 666.105469 523.296875 667.207031 C 518.980469 668.308594 514.617188 669.351562 510.207031 670.335938 C 505.792969 671.320312 501.339844 672.246094 496.847656 673.113281 C 492.351562 673.980469 487.820312 674.789062 483.25 675.535156 C 478.683594 676.285156 474.082031 676.96875 469.453125 677.59375 C 464.820312 678.21875 460.164062 678.785156 455.480469 679.285156 C 450.796875 679.789062 446.097656 680.230469 441.375 680.605469 C 436.652344 680.984375 431.914062 681.300781 427.164062 681.550781 C 422.410156 681.804688 417.652344 681.992188 412.882812 682.121094 C 408.117188 682.246094 403.34375 682.308594 398.570312 682.308594 C 393.796875 682.308594 389.023438 682.246094 384.257812 682.121094 C 379.488281 681.992188 374.726562 681.804688 369.976562 681.550781 C 365.226562 681.300781 360.488281 680.984375 355.765625 680.605469 C 351.042969 680.230469 346.339844 679.789062 341.660156 679.285156 C 336.976562 678.785156 332.320312 678.21875 327.6875 677.59375 C 323.058594 676.96875 318.457031 676.285156 313.886719 675.535156 C 309.320312 674.789062 304.789062 673.980469 300.292969 673.113281 C 295.796875 672.246094 291.34375 671.320312 286.933594 670.335938 C 282.523438 669.351562 278.160156 668.308594 273.84375 667.207031 C 269.527344 666.105469 265.265625 664.949219 261.054688 663.734375 C 256.84375 662.523438 252.691406 661.253906 248.597656 659.929688 C 244.503906 658.605469 240.46875 657.230469 236.5 655.800781 C 232.53125 654.371094 228.628906 652.886719 224.792969 651.355469 C 220.960938 649.820312 217.195312 648.238281 213.507812 646.605469 C 209.816406 644.972656 206.203125 643.289062 202.664062 641.5625 C 199.125 639.832031 195.671875 638.058594 192.292969 636.238281 C 188.917969 634.417969 185.628906 632.554688 182.421875 630.644531 C 179.214844 628.738281 176.097656 626.789062 173.070312 624.800781 C 170.039062 622.808594 167.105469 620.78125 164.261719 618.714844 C 161.414062 616.644531 158.667969 614.542969 156.015625 612.402344 C 153.363281 610.261719 150.808594 608.085938 148.355469 605.878906 C 145.902344 603.671875 143.546875 601.433594 141.296875 599.160156 C 139.046875 596.890625 136.902344 594.59375 134.859375 592.265625 C 132.820312 589.9375 130.886719 587.585938 129.058594 585.207031 C 127.230469 582.828125 125.511719 580.425781 123.90625 578.003906 C 122.296875 575.582031 120.800781 573.136719 119.414062 570.671875 C 118.027344 568.210938 116.753906 565.730469 115.59375 563.230469 C 114.433594 560.734375 113.390625 558.222656 112.457031 555.699219 C 111.527344 553.175781 110.710938 550.640625 110.007812 548.09375 C 109.308594 545.546875 108.726562 542.992188 108.257812 540.429688 C 107.789062 537.867188 107.4375 535.300781 107.203125 532.730469 C 106.96875 530.160156 106.851562 527.585938 106.851562 525.011719 C 106.851562 522.4375 106.96875 519.867188 107.203125 517.292969 C 107.4375 514.722656 107.789062 512.15625 108.257812 509.59375 C 108.726562 507.03125 109.308594 504.476562 110.007812 501.933594 C 110.710938 499.386719 111.527344 496.851562 112.457031 494.324219 C 113.390625 491.800781 114.433594 489.289062 115.59375 486.792969 C 116.753906 484.296875 118.027344 481.816406 119.414062 479.351562 C 120.800781 476.886719 122.296875 474.445312 123.90625 472.019531 C 125.511719 469.597656 127.230469 467.195312 129.058594 464.816406 C 130.882812 462.4375 132.820312 460.085938 134.859375 457.757812 C 136.902344 455.433594 139.046875 453.132812 141.296875 450.863281 C 143.546875 448.59375 145.902344 446.351562 148.355469 444.144531 C 150.808594 441.9375 153.363281 439.761719 156.015625 437.621094 C 158.667969 435.480469 161.414062 433.378906 164.261719 431.308594 C 167.105469 429.242188 170.039062 427.214844 173.070312 425.222656 C 176.097656 423.234375 179.214844 421.285156 182.421875 419.378906 C 185.628906 417.46875 188.917969 415.605469 192.292969 413.785156 C 195.671875 411.964844 199.125 410.191406 202.664062 408.460938 C 206.203125 406.734375 209.816406 405.054688 213.507812 403.421875 C 217.195312 401.785156 220.960938 400.203125 224.792969 398.671875 C 228.628906 397.136719 232.53125 395.65625 236.5 394.226562 C 240.46875 392.792969 244.503906 391.417969 248.597656 390.09375 C 252.691406 388.769531 256.84375 387.503906 261.054688 386.289062 C 265.265625 385.074219 269.527344 383.917969 273.84375 382.816406 C 278.160156 381.71875 282.523438 380.675781 286.933594 379.6875 C 291.34375 378.703125 295.796875 377.777344 300.292969 376.910156 C 304.789062 376.042969 309.320312 375.234375 313.886719 374.488281 C 318.457031 373.742188 323.058594 373.054688 327.6875 372.429688 C 332.320312 371.804688 336.976562 371.238281 341.660156 370.738281 C 346.339844 370.234375 351.042969 369.796875 355.765625 369.417969 C 360.488281 369.039062 365.226562 368.726562 369.976562 368.472656 C 374.726562 368.21875 379.488281 368.03125 384.257812 367.90625 C 389.023438 367.777344 393.796875 367.714844 398.570312 367.714844 C 403.34375 367.714844 408.117188 367.777344 412.882812 367.90625 C 417.652344 368.03125 422.410156 368.21875 427.164062 368.472656 C 431.914062 368.726562 436.652344 369.039062 441.375 369.417969 C 446.097656 369.796875 450.796875 370.234375 455.480469 370.738281 C 460.164062 371.238281 464.820312 371.804688 469.453125 372.429688 C 474.082031 373.054688 478.683594 373.742188 483.25 374.488281 C 487.820312 375.234375 492.351562 376.042969 496.847656 376.910156 C 501.339844 377.777344 505.792969 378.703125 510.207031 379.6875 C 514.617188 380.675781 518.980469 381.71875 523.296875 382.816406 C 527.609375 383.917969 531.875 385.074219 536.085938 386.289062 C 540.296875 387.503906 544.449219 388.769531 548.542969 390.09375 C 552.636719 391.417969 556.671875 392.792969 560.640625 394.226562 C 564.609375 395.65625 568.511719 397.136719 572.347656 398.671875 C 576.179688 400.203125 579.941406 401.785156 583.632812 403.421875 C 587.324219 405.054688 590.9375 406.734375 594.476562 408.460938 C 598.011719 410.191406 601.46875 411.964844 604.84375 413.785156 C 608.222656 415.605469 611.511719 417.46875 614.71875 419.378906 C 617.925781 421.285156 621.042969 423.234375 624.070312 425.222656 C 627.097656 427.214844 630.035156 429.242188 632.878906 431.308594 C 635.722656 433.378906 638.472656 435.480469 641.125 437.621094 C 643.777344 439.761719 646.328125 441.9375 648.785156 444.144531 C 651.238281 446.351562 653.589844 448.59375 655.84375 450.863281 C 658.09375 453.132812 660.238281 455.433594 662.28125 457.757812 C 664.320312 460.085938 666.253906 462.4375 668.082031 464.816406 C 669.910156 467.195312 671.625 469.597656 673.234375 472.019531 C 674.84375 474.445312 676.339844 476.886719 677.726562 479.351562 C 679.113281 481.816406 680.386719 484.296875 681.546875 486.792969 C 682.707031 489.289062 683.75 491.800781 684.683594 494.324219 C 685.613281 496.851562 686.429688 499.386719 687.128906 501.933594 C 687.832031 504.476562 688.414062 507.03125 688.882812 509.59375 C 689.351562 512.15625 689.703125 514.722656 689.9375 517.292969 C 690.171875 519.867188 690.289062 522.4375 690.289062 525.011719 Z M 690.289062 525.011719 " fill-opacity="1" fill-rule="nonzero"/><path fill="rgb(0%, 18.03894%, 20.779419%)" d="M 719.261719 375.542969 L 719.128906 375.660156 C 722.257812 391.988281 724.097656 408.742188 724.296875 425.863281 C 724.34375 427.199219 724.34375 428.492188 724.34375 429.820312 C 724.34375 435.363281 725.40625 441.769531 723.214844 447.046875 C 710.457031 477.75 672.820312 491.359375 642.679688 496.152344 C 631.257812 497.96875 619.730469 499.1875 608.355469 501.167969 C 569.105469 508 528.273438 510.464844 488.519531 512.160156 C 462.261719 513.269531 435.910156 513.769531 409.632812 513.769531 L 404.632812 513.769531 C 358.421875 513.769531 311.710938 512.789062 265.695312 508.132812 C 230.773438 504.597656 196.949219 499.207031 162.507812 492.835938 C 145.457031 489.683594 129.460938 482.394531 115.992188 471.445312 C 102.648438 460.582031 89.914062 447.816406 89.914062 429.816406 C 89.914062 427.695312 89.960938 425.527344 89.996094 423.402344 C 90.375 407.15625 92.121094 391.199219 95.132812 375.65625 C 95.132812 375.65625 90.917969 371.410156 90.882812 371.410156 L 47.640625 339.363281 L 84.664062 246.554688 C 84.664062 246.554688 148.605469 233.101562 176.664062 218.976562 C 207.457031 203.472656 236.769531 184.558594 266.945312 167.855469 C 282.972656 159.003906 298.976562 149.824219 313.835938 139.09375 C 327.097656 129.515625 337.652344 116.703125 351.003906 107.265625 C 385 83.222656 429.703125 80.886719 463.140625 106.695312 C 473.78125 114.910156 482.511719 125.351562 493 133.621094 C 509.828125 146.890625 528.609375 157.5 547.3125 167.855469 C 577.488281 184.558594 606.792969 203.472656 637.601562 218.976562 C 665.648438 233.101562 729.601562 246.554688 729.601562 246.554688 L 762.769531 358.371094 Z M 719.261719 375.542969 " fill-opacity="1" fill-rule="nonzero"/><path fill="rgb(97.24884%, 72.158813%, 34.509277%)" d="M 724.296875 425.863281 C 606.207031 455.6875 498.085938 466.105469 404.585938 466.105469 C 257.527344 466.105469 146.640625 440.277344 89.996094 423.402344 C 90.371094 407.15625 92.117188 391.199219 95.128906 375.65625 L 90.917969 371.410156 C 167.699219 396.078125 407.011719 456.273438 719.261719 375.539062 L 719.132812 375.65625 C 722.257812 391.988281 724.097656 408.738281 724.296875 425.863281 Z M 724.296875 425.863281 " fill-opacity="1" fill-rule="nonzero"/><path fill="rgb(97.24884%, 72.158813%, 34.509277%)" d="M 494.765625 190.808594 L 494.765625 285.167969 C 492.207031 343.273438 407.140625 362.648438 407.140625 362.648438 C 407.140625 362.648438 374.929688 355.292969 349.585938 336.128906 C 348.65625 335.464844 347.78125 334.769531 346.890625 334.058594 C 332.257812 322.257812 320.457031 306.269531 319.53125 285.167969 L 319.53125 190.808594 C 319.53125 190.808594 349.449219 195.699219 369.867188 188.519531 C 397.3125 178.875 407.140625 160.640625 407.140625 160.640625 C 407.140625 160.640625 416.96875 178.875 444.429688 188.519531 C 448.351562 189.878906 452.585938 190.808594 456.910156 191.476562 C 475.195312 194.023438 494.765625 190.808594 494.765625 190.808594 Z M 494.765625 190.808594 " fill-opacity="1" fill-rule="nonzero"/><path fill="rgb(98.429871%, 79.219055%, 43.528748%)" d="M 494.765625 190.808594 L 494.765625 285.167969 C 492.207031 343.273438 407.140625 362.648438 407.140625 362.648438 L 407.140625 160.640625 C 407.140625 160.640625 416.96875 178.875 444.429688 188.519531 C 448.351562 189.878906 452.585938 190.808594 456.910156 191.476562 C 475.195312 194.023438 494.765625 190.808594 494.765625 190.808594 Z M 494.765625 190.808594 " fill-opacity="1" fill-rule="nonzero"/></svg>