<?xml version="1.0" encoding="UTF-8"?><svg xmlns="http://www.w3.org/2000/svg" xmlns:xlink="http://www.w3.org/1999/xlink" contentScriptType="text/ecmascript" width="810" zoomAndPan="magnify" contentStyleType="text/css" viewBox="0 0 810 809.999993" height="809.999993" preserveAspectRatio="xMidYMid meet" version="1.0"><path fill="rgb(96.078491%, 69.018555%, 17.248535%)" d="M 806.867188 293.964844 C 806.867188 293.964844 791.242188 209.109375 700.84375 218.042969 C 746.601562 234.789062 733.210938 291.730469 694.148438 263.816406 C 655.089844 235.90625 614.914062 197.945312 545.71875 226.976562 C 476.527344 256.003906 428.539062 282.796875 380.550781 251.539062 C 429.65625 309.59375 443.046875 314.058594 508.890625 296.199219 C 574.738281 278.335938 609.882812 287.984375 621.609375 309.59375 C 642.8125 348.671875 605.984375 372.117188 557.996094 359.835938 C 530.625 352.832031 361.578125 282.796875 286.804688 397.796875 C 286.804688 397.796875 363.8125 353.136719 425.191406 375.464844 C 486.570312 397.796875 435.234375 448.039062 353.765625 433.523438 C 406.21875 471.484375 434.117188 460.320312 489.921875 426.824219 C 545.722656 393.328125 598.171875 391.097656 613.796875 426.824219 C 631.960938 468.363281 565.808594 489.347656 517.820312 460.320312 C 554.648438 513.910156 585.339844 510.839844 620.492188 506.652344 C 663.648438 501.511719 674.898438 485.71875 712.5625 484.046875 C 663.179688 473.996094 644.765625 380.210938 716.75 363.464844 C 722.605469 321.597656 766.132812 285.589844 806.867188 293.964844 Z M 806.867188 293.964844 " fill-opacity="1" fill-rule="nonzero"/><path fill="rgb(64.709473%, 47.839355%, 23.919678%)" d="M 625.28125 358.058594 C 622.207031 357.972656 619.195312 360.96875 619.191406 364.121094 C 619.1875 367.160156 622.015625 369.886719 625.1875 369.902344 C 628.515625 369.917969 631.046875 367.433594 631.050781 364.144531 C 631.054688 360.976562 628.371094 358.148438 625.28125 358.058594 Z M 625.28125 358.058594 " fill-opacity="1" fill-rule="nonzero"/><path fill="rgb(64.709473%, 47.839355%, 23.919678%)" d="M 624.730469 343.808594 C 624.730469 343.765625 624.71875 343.730469 624.71875 343.691406 C 623.914062 345.25 622.964844 346.730469 621.867188 348.125 C 623.484375 347.292969 624.710938 345.597656 624.730469 343.808594 Z M 624.730469 343.808594 " fill-opacity="1" fill-rule="nonzero"/><path fill="rgb(64.709473%, 47.839355%, 23.919678%)" d="M 621.117188 436.894531 C 624.589844 436.90625 627.410156 434.164062 627.367188 430.824219 C 627.320312 427.492188 624.65625 424.921875 621.242188 424.921875 C 618.039062 424.925781 615.421875 427.195312 615.039062 430.089844 C 615.535156 431.546875 615.953125 432.984375 616.242188 434.386719 C 617.390625 435.875 619.183594 436.890625 621.117188 436.894531 Z M 621.117188 436.894531 " fill-opacity="1" fill-rule="nonzero"/><path fill="rgb(64.709473%, 47.839355%, 23.919678%)" d="M 604.757812 374.140625 C 607.457031 374.144531 609.304688 372.277344 609.332031 369.519531 C 609.359375 367.046875 607.136719 364.804688 604.679688 364.828125 C 602.21875 364.851562 600.03125 367.09375 600.042969 369.578125 C 600.058594 372.15625 602.101562 374.132812 604.757812 374.140625 Z M 604.757812 374.140625 " fill-opacity="1" fill-rule="nonzero"/><path fill="rgb(64.709473%, 47.839355%, 23.919678%)" d="M 645.863281 351.925781 C 641.855469 351.859375 638.6875 354.773438 638.695312 358.519531 C 638.703125 362.171875 642.011719 365.535156 645.640625 365.582031 C 649.339844 365.628906 652.339844 362.597656 652.378906 358.773438 C 652.421875 354.769531 649.777344 351.988281 645.863281 351.925781 Z M 645.863281 351.925781 " fill-opacity="1" fill-rule="nonzero"/><path fill="rgb(64.709473%, 47.839355%, 23.919678%)" d="M 651.207031 371.597656 C 646.957031 371.613281 643.730469 374.851562 643.746094 379.082031 C 643.757812 383.125 647.078125 386.601562 650.988281 386.667969 C 655.089844 386.734375 658.804688 383.007812 658.695312 378.933594 C 658.582031 374.847656 655.246094 371.578125 651.207031 371.597656 Z M 651.207031 371.597656 " fill-opacity="1" fill-rule="nonzero"/><path fill="rgb(64.709473%, 47.839355%, 23.919678%)" d="M 610.285156 395.335938 C 613.21875 395.328125 615.71875 392.769531 615.632812 389.863281 C 615.554688 387.144531 612.890625 384.515625 610.238281 384.539062 C 607.425781 384.558594 604.695312 387.296875 604.765625 390.019531 C 604.839844 392.988281 607.289062 395.34375 610.285156 395.335938 Z M 610.285156 395.335938 " fill-opacity="1" fill-rule="nonzero"/><path fill="rgb(64.709473%, 47.839355%, 23.919678%)" d="M 629.296875 404.800781 C 628.796875 408.183594 632.039062 411.78125 635.925781 411.980469 C 639.863281 412.183594 643.027344 408.996094 643.023438 405.0625 C 643.019531 401.039062 640.1875 397.964844 636.4375 397.898438 C 632.484375 397.828125 629.320312 400.886719 629.296875 404.800781 Z M 629.296875 404.800781 " fill-opacity="1" fill-rule="nonzero"/><path fill="rgb(64.709473%, 47.839355%, 23.919678%)" d="M 630.863281 378.105469 C 627.066406 378.042969 624.242188 380.792969 624.238281 384.554688 C 624.234375 388.273438 627.125 391.132812 630.847656 391.097656 C 634.277344 391.066406 637.039062 388.214844 637.078125 384.667969 C 637.121094 380.835938 634.597656 378.167969 630.863281 378.105469 Z M 630.863281 378.105469 " fill-opacity="1" fill-rule="nonzero"/><path fill="rgb(64.709473%, 47.839355%, 23.919678%)" d="M 637.75 497.976562 C 640.78125 497.910156 643.472656 495.1875 643.472656 492.1875 C 643.472656 489.066406 640.652344 486.21875 637.582031 486.246094 C 634.5 486.273438 631.84375 489.074219 631.875 492.257812 C 631.90625 495.507812 634.515625 498.046875 637.75 497.976562 Z M 637.75 497.976562 " fill-opacity="1" fill-rule="nonzero"/><path fill="rgb(64.709473%, 47.839355%, 23.919678%)" d="M 652.550781 473.394531 C 656.566406 473.417969 659.800781 470.296875 659.859375 466.347656 C 659.914062 462.445312 656.621094 459.011719 652.789062 458.972656 C 648.789062 458.929688 645.476562 462.089844 645.4375 465.992188 C 645.390625 470.308594 648.332031 473.371094 652.550781 473.394531 Z M 652.550781 473.394531 " fill-opacity="1" fill-rule="nonzero"/><path fill="rgb(64.709473%, 47.839355%, 23.919678%)" d="M 654.546875 445.820312 C 654.519531 441.882812 651.242188 438.726562 647.328125 438.550781 C 643.34375 438.367188 639.800781 441.625 639.710938 445.90625 C 639.628906 449.726562 643.183594 453.027344 647.054688 453.042969 C 651.132812 453.054688 654.574219 449.738281 654.546875 445.820312 Z M 654.546875 445.820312 " fill-opacity="1" fill-rule="nonzero"/><path fill="rgb(64.709473%, 47.839355%, 23.919678%)" d="M 615.683594 416.375 C 618.671875 416.433594 621.636719 413.492188 621.632812 410.472656 C 621.632812 407.328125 618.917969 404.644531 615.746094 404.648438 C 612.535156 404.65625 609.855469 407.265625 609.832031 410.414062 C 609.808594 413.460938 612.609375 416.316406 615.683594 416.375 Z M 615.683594 416.375 " fill-opacity="1" fill-rule="nonzero"/><path fill="rgb(64.709473%, 47.839355%, 23.919678%)" d="M 658.097656 493.710938 C 661.789062 493.675781 664.945312 490.453125 664.953125 486.707031 C 664.964844 482.835938 661.914062 479.710938 658.144531 479.722656 C 654.191406 479.738281 651.238281 482.648438 651.207031 486.554688 C 651.171875 490.601562 654.199219 493.75 658.097656 493.710938 Z M 658.097656 493.710938 " fill-opacity="1" fill-rule="nonzero"/><path fill="rgb(64.709473%, 47.839355%, 23.919678%)" d="M 616.953125 502.140625 C 618.988281 502.28125 621.515625 499.941406 621.585938 497.839844 C 621.671875 495.40625 619.855469 493.578125 617.242188 493.472656 C 614.847656 493.375 612.9375 495.105469 612.832031 497.472656 C 612.726562 499.804688 614.644531 501.976562 616.953125 502.140625 Z M 616.953125 502.140625 " fill-opacity="1" fill-rule="nonzero"/><path fill="rgb(64.709473%, 47.839355%, 23.919678%)" d="M 632.039062 477.667969 C 635.539062 477.691406 638.128906 475.285156 638.226562 471.917969 C 638.328125 468.433594 635.707031 465.738281 632.210938 465.730469 C 628.785156 465.722656 625.953125 468.453125 625.96875 471.757812 C 625.980469 474.976562 628.722656 477.648438 632.039062 477.667969 Z M 632.039062 477.667969 " fill-opacity="1" fill-rule="nonzero"/><path fill="rgb(64.709473%, 47.839355%, 23.919678%)" d="M 607.160156 476.996094 C 607.105469 479.957031 608.835938 481.824219 611.65625 481.863281 C 614.140625 481.894531 616.359375 479.792969 616.449219 477.328125 C 616.539062 474.808594 614.25 472.519531 611.648438 472.53125 C 609.1875 472.542969 607.203125 474.519531 607.160156 476.996094 Z M 607.160156 476.996094 " fill-opacity="1" fill-rule="nonzero"/><path fill="rgb(64.709473%, 47.839355%, 23.919678%)" d="M 626.632812 457.304688 C 630.296875 457.328125 632.738281 454.957031 632.753906 451.355469 C 632.769531 447.648438 630.421875 445.277344 626.738281 445.285156 C 623.058594 445.292969 620.519531 447.738281 620.546875 451.25 C 620.574219 454.90625 622.964844 457.28125 626.632812 457.304688 Z M 626.632812 457.304688 " fill-opacity="1" fill-rule="nonzero"/><path fill="rgb(64.709473%, 47.839355%, 23.919678%)" d="M 671.570312 365.472656 C 666.886719 365.472656 663.277344 369.03125 663.277344 373.648438 C 663.28125 378.234375 666.9375 381.800781 671.636719 381.792969 C 675.890625 382.136719 679.84375 378.511719 679.933594 373.59375 C 680.019531 368.894531 676.34375 365.472656 671.570312 365.472656 Z M 671.570312 365.472656 " fill-opacity="1" fill-rule="nonzero"/><path fill="rgb(64.709473%, 47.839355%, 23.919678%)" d="M 750.183594 308.777344 C 749.253906 305.417969 746.078125 302.878906 742.3125 302.871094 C 737.78125 302.863281 734.347656 306.203125 734.277344 310.675781 C 734.21875 314.339844 736.261719 317.273438 739.34375 318.445312 C 742.699219 314.921875 746.335938 311.6875 750.183594 308.777344 Z M 750.183594 308.777344 " fill-opacity="1" fill-rule="nonzero"/><path fill="rgb(64.709473%, 47.839355%, 23.919678%)" d="M 666.269531 345.421875 C 662.320312 345.222656 658.367188 349.109375 658.304688 353.265625 C 658.246094 357.089844 661.890625 360.613281 666.011719 360.714844 C 670.410156 360.820312 673.582031 357.6875 673.644531 353.183594 C 673.699219 349.109375 670.398438 345.632812 666.269531 345.421875 Z M 666.269531 345.421875 " fill-opacity="1" fill-rule="nonzero"/><path fill="rgb(64.709473%, 47.839355%, 23.919678%)" d="M 656.707031 407.304688 C 661.300781 407.488281 664.492188 403.988281 664.660156 399.417969 C 664.816406 395.09375 660.996094 391.632812 656.511719 391.660156 C 652.167969 391.683594 648.847656 394.945312 648.808594 399.230469 C 648.761719 404.011719 651.949219 407.265625 656.707031 407.304688 Z M 656.707031 407.304688 " fill-opacity="1" fill-rule="nonzero"/><path fill="rgb(64.709473%, 47.839355%, 23.919678%)" d="M 762.824219 297.574219 C 758.191406 297.597656 754.8125 300.789062 754.792969 305.296875 C 754.792969 305.363281 754.808594 305.421875 754.808594 305.488281 C 758.742188 302.894531 762.871094 300.65625 767.121094 298.796875 C 765.933594 298.035156 764.496094 297.566406 762.824219 297.574219 Z M 762.824219 297.574219 " fill-opacity="1" fill-rule="nonzero"/><path fill="rgb(64.709473%, 47.839355%, 23.919678%)" d="M 718.375 355.351562 C 716.746094 354.074219 714.679688 353.28125 712.382812 353.238281 C 707.277344 353.140625 703.160156 357.519531 703.09375 362.617188 C 703.070312 364.453125 703.535156 366.074219 704.300781 367.46875 C 708.105469 365.859375 712.253906 364.511719 716.75 363.464844 C 717.132812 360.730469 717.683594 358.023438 718.375 355.351562 Z M 718.375 355.351562 " fill-opacity="1" fill-rule="nonzero"/><path fill="rgb(64.709473%, 47.839355%, 23.919678%)" d="M 681.007812 260.433594 C 681.035156 262.730469 682.777344 264.5625 684.960938 264.601562 C 687.15625 264.644531 689.085938 262.550781 688.996094 260.230469 C 688.992188 260.171875 688.960938 260.117188 688.953125 260.054688 C 687.3125 258.855469 685.664062 257.648438 684.011719 256.429688 C 682.21875 256.863281 680.984375 258.367188 681.007812 260.433594 Z M 681.007812 260.433594 " fill-opacity="1" fill-rule="nonzero"/><path fill="rgb(64.709473%, 47.839355%, 23.919678%)" d="M 673.089844 452.492188 C 668.542969 452.574219 665.0625 456.132812 664.890625 460.550781 C 664.695312 465.550781 668.820312 468.984375 673.160156 469.003906 C 677.027344 469.023438 680.890625 465.992188 681.082031 461.550781 C 679.277344 458.867188 677.65625 456.027344 676.230469 453.058594 C 675.277344 452.679688 674.222656 452.472656 673.089844 452.492188 Z M 673.089844 452.492188 " fill-opacity="1" fill-rule="nonzero"/><path fill="rgb(64.709473%, 47.839355%, 23.919678%)" d="M 670.726562 480.976562 C 670.710938 485.730469 673.933594 489.019531 678.6875 489.101562 C 682.875 489.175781 686.359375 485.558594 686.351562 481.136719 C 686.347656 476.648438 683.074219 473.351562 678.621094 473.351562 C 674.128906 473.347656 670.742188 476.617188 670.726562 480.976562 Z M 670.726562 480.976562 " fill-opacity="1" fill-rule="nonzero"/><path fill="rgb(64.709473%, 47.839355%, 23.919678%)" d="M 586.074219 395.363281 C 586.050781 397.652344 587.652344 399.363281 589.785156 399.332031 C 591.648438 399.300781 593.570312 397.351562 593.570312 395.484375 C 593.570312 393.414062 591.957031 391.828125 589.820312 391.796875 C 587.546875 391.765625 586.097656 393.144531 586.074219 395.363281 Z M 586.074219 395.363281 " fill-opacity="1" fill-rule="nonzero"/><path fill="rgb(64.709473%, 47.839355%, 23.919678%)" d="M 718.375 336.652344 C 718.363281 339.710938 719.898438 342.484375 722.203125 344.191406 C 724.542969 338.734375 727.511719 333.523438 730.960938 328.640625 C 729.890625 328.179688 728.695312 327.890625 727.375 327.871094 C 722.464844 327.792969 718.398438 331.871094 718.375 336.652344 Z M 718.375 336.652344 " fill-opacity="1" fill-rule="nonzero"/><path fill="rgb(64.709473%, 47.839355%, 23.919678%)" d="M 686.617188 339.410156 C 682.046875 339.308594 678.527344 343.027344 678.402344 347.710938 C 678.273438 352.710938 682.277344 355.949219 686.589844 356.015625 C 691.128906 356.085938 694.671875 352.378906 694.679688 347.855469 C 695.035156 342.796875 690.585938 339.5 686.617188 339.410156 Z M 686.617188 339.410156 " fill-opacity="1" fill-rule="nonzero"/><path fill="rgb(64.709473%, 47.839355%, 23.919678%)" d="M 721.863281 308.257812 C 717.5 308.191406 713.988281 311.738281 713.945312 316.261719 C 713.902344 321.007812 717.113281 324.25 721.914062 324.3125 C 726.457031 324.371094 730.027344 320.816406 730.035156 316.230469 C 730.039062 312.097656 726.175781 308.324219 721.863281 308.257812 Z M 721.863281 308.257812 " fill-opacity="1" fill-rule="nonzero"/><path fill="rgb(64.709473%, 47.839355%, 23.919678%)" d="M 698.675781 484.394531 C 701.3125 484.433594 703.59375 483.445312 705.199219 481.792969 C 699.902344 479.691406 695.058594 476.605469 690.753906 472.75 C 690.449219 473.613281 690.265625 474.511719 690.289062 475.429688 C 690.410156 480.480469 693.832031 484.316406 698.675781 484.394531 Z M 698.675781 484.394531 " fill-opacity="1" fill-rule="nonzero"/><path fill="rgb(64.709473%, 47.839355%, 23.919678%)" d="M 667.667969 448.722656 C 669.824219 448.730469 671.84375 447.769531 673.355469 446.269531 C 671.726562 441.753906 670.546875 437.046875 669.824219 432.261719 C 669.09375 432.039062 668.339844 431.886719 667.570312 431.898438 C 663.179688 431.972656 659.21875 435.90625 659.171875 440.246094 C 659.121094 444.625 663.214844 448.707031 667.667969 448.722656 Z M 667.667969 448.722656 " fill-opacity="1" fill-rule="nonzero"/><path fill="rgb(64.709473%, 47.839355%, 23.919678%)" d="M 641.996094 418.222656 C 637.667969 418.167969 634.445312 421.144531 634.421875 425.226562 C 634.398438 429.210938 637.605469 432.59375 641.453125 432.648438 C 645.574219 432.703125 648.816406 429.527344 648.847656 425.402344 C 648.878906 421.421875 645.871094 418.269531 641.996094 418.222656 Z M 641.996094 418.222656 " fill-opacity="1" fill-rule="nonzero"/><path fill="rgb(64.709473%, 47.839355%, 23.919678%)" d="M 662.140625 428.210938 C 665.042969 428.40625 667.648438 426.675781 669.078125 424.109375 C 668.980469 421.363281 669.011719 418.613281 669.242188 415.878906 C 667.949219 413.421875 665.488281 411.734375 662.476562 411.589844 C 658.222656 411.390625 654.171875 415.179688 653.894531 419.375 C 653.601562 423.824219 656.996094 427.867188 662.140625 428.210938 Z M 662.140625 428.210938 " fill-opacity="1" fill-rule="nonzero"/><path fill="rgb(64.709473%, 47.839355%, 23.919678%)" d="M 668.324219 393.941406 C 668.335938 396.917969 669.925781 399.65625 672.226562 401.3125 C 674.074219 395.820312 676.792969 390.609375 680.363281 385.839844 C 679.378906 385.46875 678.292969 385.238281 677.09375 385.210938 C 672.398438 385.105469 668.304688 389.335938 668.324219 393.941406 Z M 668.324219 393.941406 " fill-opacity="1" fill-rule="nonzero"/><path fill="rgb(64.709473%, 47.839355%, 23.919678%)" d="M 692.050781 359.148438 C 687.265625 359.246094 683.082031 363.351562 682.980469 368.042969 C 682.902344 371.753906 685.648438 375.269531 689.125 376.59375 C 692.566406 373.742188 696.53125 371.234375 700.953125 369.066406 C 700.976562 368.808594 701.035156 368.558594 701.035156 368.292969 C 701.050781 363.410156 696.765625 359.050781 692.050781 359.148438 Z M 692.050781 359.148438 " fill-opacity="1" fill-rule="nonzero"/><path fill="rgb(64.709473%, 47.839355%, 23.919678%)" d="M 629.09375 293.613281 C 627.460938 293.636719 625.742188 295.449219 625.683594 297.207031 C 625.617188 299.117188 627.089844 300.679688 629.015625 300.746094 C 631.023438 300.8125 632.664062 299.257812 632.679688 297.257812 C 632.699219 295.359375 630.957031 293.589844 629.09375 293.613281 Z M 629.09375 293.613281 " fill-opacity="1" fill-rule="nonzero"/><path fill="rgb(64.709473%, 47.839355%, 23.919678%)" d="M 675.753906 300.355469 C 672.199219 300.269531 669.199219 303.125 669.167969 306.621094 C 669.136719 310.351562 671.761719 313.066406 675.4375 313.109375 C 679.167969 313.152344 681.882812 310.515625 681.910156 306.824219 C 681.9375 303.347656 679.171875 300.441406 675.753906 300.355469 Z M 675.753906 300.355469 " fill-opacity="1" fill-rule="nonzero"/><path fill="rgb(64.709473%, 47.839355%, 23.919678%)" d="M 634.570312 312.882812 C 631.835938 312.914062 629.640625 314.960938 629.574219 317.542969 C 629.503906 320.34375 631.839844 322.644531 634.699219 322.585938 C 637.738281 322.527344 639.5625 320.679688 639.550781 317.679688 C 639.539062 314.824219 637.488281 312.847656 634.570312 312.882812 Z M 634.570312 312.882812 " fill-opacity="1" fill-rule="nonzero"/><path fill="rgb(64.709473%, 47.839355%, 23.919678%)" d="M 649.558594 287.4375 C 647.03125 287.441406 645.167969 289.21875 645.128906 291.660156 C 645.085938 294.296875 646.855469 296.132812 649.5 296.191406 C 652.234375 296.253906 653.941406 294.59375 653.964844 291.84375 C 653.984375 289.113281 652.308594 287.4375 649.558594 287.4375 Z M 649.558594 287.4375 " fill-opacity="1" fill-rule="nonzero"/><path fill="rgb(64.709473%, 47.839355%, 23.919678%)" d="M 634.238281 338.074219 C 634.199219 341.429688 636.789062 344.269531 639.96875 344.351562 C 643.203125 344.441406 646.242188 341.5 646.265625 338.261719 C 646.292969 334.878906 643.574219 332.253906 640.023438 332.238281 C 636.769531 332.226562 634.277344 334.738281 634.238281 338.074219 Z M 634.238281 338.074219 " fill-opacity="1" fill-rule="nonzero"/><path fill="rgb(64.709473%, 47.839355%, 23.919678%)" d="M 670.160156 281.074219 C 667.292969 281.253906 664.75 283.171875 664.902344 286.320312 C 664.925781 289.304688 667.253906 291.636719 670.140625 291.566406 C 673.054688 291.496094 675.199219 289.152344 675.148438 286.09375 C 675.105469 283.472656 672.730469 280.917969 670.160156 281.074219 Z M 670.160156 281.074219 " fill-opacity="1" fill-rule="nonzero"/><path fill="rgb(64.709473%, 47.839355%, 23.919678%)" d="M 655.035156 306.316406 C 651.964844 306.328125 649.316406 309.09375 649.25 312.347656 C 649.1875 315.4375 652.027344 318.183594 655.222656 318.125 C 658.390625 318.066406 660.78125 315.5625 660.773438 312.300781 C 660.765625 309 658.1875 306.304688 655.035156 306.316406 Z M 655.035156 306.316406 " fill-opacity="1" fill-rule="nonzero"/><path fill="rgb(64.709473%, 47.839355%, 23.919678%)" d="M 664.96875 262.21875 C 663.382812 261.949219 661.175781 263.765625 660.949219 265.523438 C 660.734375 267.171875 662.328125 269.121094 664.113281 269.402344 C 665.894531 269.679688 667.871094 268.0625 668.101562 266.148438 C 668.292969 264.558594 666.65625 262.503906 664.96875 262.21875 Z M 664.96875 262.21875 " fill-opacity="1" fill-rule="nonzero"/><path fill="rgb(64.709473%, 47.839355%, 23.919678%)" d="M 653.871094 332.5625 C 653.847656 336.585938 656.640625 339.4375 660.605469 339.4375 C 664.550781 339.441406 667.492188 336.511719 667.46875 332.613281 C 667.445312 329.21875 664.222656 325.890625 660.863281 325.796875 C 657.027344 325.691406 653.894531 328.722656 653.871094 332.5625 Z M 653.871094 332.5625 " fill-opacity="1" fill-rule="nonzero"/><path fill="rgb(64.709473%, 47.839355%, 23.919678%)" d="M 643.605469 268.492188 C 642.875 269.414062 641.484375 270.410156 641.582031 271.238281 C 641.691406 272.222656 642.941406 273.574219 643.941406 273.84375 C 645.378906 274.230469 646.453125 273.074219 646.511719 271.488281 C 646.570312 269.933594 645.824219 268.941406 643.605469 268.492188 Z M 643.605469 268.492188 " fill-opacity="1" fill-rule="nonzero"/><path fill="rgb(64.709473%, 47.839355%, 23.919678%)" d="M 791.628906 258.191406 C 790.46875 256.425781 789.253906 254.660156 787.929688 252.894531 C 787.90625 253.082031 787.824219 253.238281 787.820312 253.433594 C 787.804688 255.960938 789.378906 257.765625 791.628906 258.191406 Z M 791.628906 258.191406 " fill-opacity="1" fill-rule="nonzero"/><path fill="rgb(64.709473%, 47.839355%, 23.919678%)" d="M 792.050781 273.710938 C 791.984375 277.460938 794.28125 279.953125 797.847656 280.011719 C 799.589844 280.042969 801.058594 279.503906 802.132812 278.554688 C 800.867188 275.332031 799.304688 271.785156 797.382812 268.042969 C 794.105469 268.34375 792.113281 270.40625 792.050781 273.710938 Z M 792.050781 273.710938 " fill-opacity="1" fill-rule="nonzero"/><path fill="rgb(64.709473%, 47.839355%, 23.919678%)" d="M 704.871094 275.425781 C 704.742188 278.425781 707.632812 281.207031 710.808594 281.324219 C 713.972656 281.445312 716.636719 278.832031 716.6875 275.554688 C 716.714844 273.777344 716.148438 272.316406 715.128906 271.296875 C 712.835938 271.496094 710.320312 271.296875 707.570312 270.5625 C 705.933594 271.671875 704.949219 273.644531 704.871094 275.425781 Z M 704.871094 275.425781 " fill-opacity="1" fill-rule="nonzero"/><path fill="rgb(64.709473%, 47.839355%, 23.919678%)" d="M 796.542969 292.792969 C 799.988281 292.894531 803.4375 293.257812 806.867188 293.964844 C 806.867188 293.964844 806.40625 291.527344 805.242188 287.582031 C 804.71875 287.46875 804.179688 287.390625 803.613281 287.394531 C 799.976562 287.410156 797.234375 289.597656 796.542969 292.792969 Z M 796.542969 292.792969 " fill-opacity="1" fill-rule="nonzero"/><path fill="rgb(64.709473%, 47.839355%, 23.919678%)" d="M 588.253906 482.117188 C 588.714844 484.316406 589.609375 485.203125 591.175781 485.210938 C 592.75 485.222656 593.738281 484.320312 593.6875 482.710938 C 593.640625 481.195312 592.796875 479.957031 591.191406 480.257812 C 590.132812 480.457031 589.226562 481.46875 588.253906 482.117188 Z M 588.253906 482.117188 " fill-opacity="1" fill-rule="nonzero"/><path fill="rgb(64.709473%, 47.839355%, 23.919678%)" d="M 610.789062 457.046875 C 609.511719 458.609375 608.074219 460.085938 606.457031 461.449219 C 609 461.339844 610.671875 459.660156 610.789062 457.046875 Z M 610.789062 457.046875 " fill-opacity="1" fill-rule="nonzero"/><path fill="rgb(64.709473%, 47.839355%, 23.919678%)" d="M 584.367188 377.738281 C 586.074219 377.699219 586.9375 376.753906 587.019531 374.605469 C 587.011719 373.328125 586.160156 372.40625 584.445312 372.34375 C 582.613281 372.269531 581.507812 373.320312 581.484375 375 C 581.457031 376.6875 582.539062 377.777344 584.367188 377.738281 Z M 584.367188 377.738281 " fill-opacity="1" fill-rule="nonzero"/><path fill="rgb(64.709473%, 47.839355%, 23.919678%)" d="M 596.769531 504.863281 C 597.296875 504.941406 598.488281 503.84375 598.503906 503.25 C 598.523438 502.515625 597.628906 501.761719 596.75 500.453125 C 595.75 501.730469 594.660156 502.53125 594.753906 503.160156 C 594.851562 503.851562 595.984375 504.742188 596.769531 504.863281 Z M 596.769531 504.863281 " fill-opacity="1" fill-rule="nonzero"/><path fill="rgb(64.709473%, 47.839355%, 23.919678%)" d="M 757.390625 278.109375 C 753.386719 278.054688 750.386719 280.886719 750.347656 284.757812 C 750.304688 288.839844 753.226562 291.863281 757.21875 291.871094 C 761.132812 291.882812 764.125 288.9375 764.148438 285.054688 C 764.171875 281.050781 761.363281 278.164062 757.390625 278.109375 Z M 757.390625 278.109375 " fill-opacity="1" fill-rule="nonzero"/><path fill="rgb(64.709473%, 47.839355%, 23.919678%)" d="M 777.144531 295.214844 C 780.335938 294.332031 783.566406 293.679688 786.828125 293.269531 C 785.757812 292.683594 784.523438 292.3125 783.144531 292.273438 C 780.847656 292.203125 778.636719 293.417969 777.144531 295.214844 Z M 777.144531 295.214844 " fill-opacity="1" fill-rule="nonzero"/><path fill="rgb(64.709473%, 47.839355%, 23.919678%)" d="M 729.550781 290.308594 C 729.503906 294.101562 733.003906 297.660156 736.777344 297.660156 C 740.535156 297.660156 743.804688 294.355469 743.816406 290.546875 C 743.828125 286.480469 740.914062 283.390625 737.042969 283.359375 C 733.074219 283.328125 729.597656 286.554688 729.550781 290.308594 Z M 729.550781 290.308594 " fill-opacity="1" fill-rule="nonzero"/><path fill="rgb(64.709473%, 47.839355%, 23.919678%)" d="M 751.734375 258.753906 C 748.398438 258.78125 745.921875 261.292969 745.976562 264.59375 C 746.03125 267.644531 748.792969 270.375 751.773438 270.316406 C 754.976562 270.25 757.460938 267.609375 757.414062 264.304688 C 757.371094 261 755.042969 258.726562 751.734375 258.753906 Z M 751.734375 258.753906 " fill-opacity="1" fill-rule="nonzero"/><path fill="rgb(64.709473%, 47.839355%, 23.919678%)" d="M 739.0625 223.382812 C 739.625 223.945312 740.128906 224.863281 740.769531 224.96875 C 741.339844 225.0625 742.058594 224.261719 743.097656 223.609375 C 742.070312 222.746094 741.433594 221.800781 740.839844 221.824219 C 740.226562 221.851562 739.652344 222.824219 739.0625 223.382812 Z M 739.0625 223.382812 " fill-opacity="1" fill-rule="nonzero"/><path fill="rgb(64.709473%, 47.839355%, 23.919678%)" d="M 746.238281 239.804688 C 743.847656 239.800781 742.070312 241.589844 742.085938 243.988281 C 742.101562 246.316406 743.972656 248.261719 746.222656 248.296875 C 748.527344 248.332031 750.652344 246.183594 750.574219 243.886719 C 750.5 241.53125 748.664062 239.808594 746.238281 239.804688 Z M 746.238281 239.804688 " fill-opacity="1" fill-rule="nonzero"/><path fill="rgb(64.709473%, 47.839355%, 23.919678%)" d="M 766.511719 234.679688 C 764.484375 234.765625 762.726562 236.527344 762.707031 238.496094 C 762.6875 240.355469 764.859375 242.496094 766.726562 242.453125 C 768.789062 242.40625 770.574219 240.496094 770.53125 238.378906 C 770.492188 236.140625 768.800781 234.585938 766.511719 234.679688 Z M 766.511719 234.679688 " fill-opacity="1" fill-rule="nonzero"/><path fill="rgb(64.709473%, 47.839355%, 23.919678%)" d="M 777.703125 272.875 C 774.035156 272.863281 770.949219 275.804688 770.933594 279.335938 C 770.914062 283.121094 773.835938 286.007812 777.6875 285.996094 C 781.417969 285.984375 784.34375 283.136719 784.394531 279.472656 C 784.441406 275.976562 781.308594 272.890625 777.703125 272.875 Z M 777.703125 272.875 " fill-opacity="1" fill-rule="nonzero"/><path fill="rgb(64.709473%, 47.839355%, 23.919678%)" d="M 772.207031 253.628906 C 769.035156 253.628906 766.710938 255.839844 766.707031 258.863281 C 766.703125 261.75 769.222656 264.417969 772.035156 264.507812 C 774.917969 264.601562 777.703125 261.851562 777.683594 258.933594 C 777.660156 255.910156 775.308594 253.628906 772.207031 253.628906 Z M 772.207031 253.628906 " fill-opacity="1" fill-rule="nonzero"/><path fill="rgb(64.709473%, 47.839355%, 23.919678%)" d="M 701.574219 313.90625 C 697.46875 313.828125 693.917969 317.347656 693.71875 321.398438 C 693.476562 326.234375 696.925781 329.613281 701.4375 329.703125 C 705.675781 329.785156 709.378906 326.40625 709.140625 321.902344 C 709.214844 317.558594 705.832031 313.984375 701.574219 313.90625 Z M 701.574219 313.90625 " fill-opacity="1" fill-rule="nonzero"/><path fill="rgb(64.709473%, 47.839355%, 23.919678%)" d="M 673.476562 327.335938 C 673.578125 331.265625 677.074219 334.703125 680.984375 334.71875 C 685.039062 334.738281 688.671875 331.125 688.566406 327.183594 C 688.457031 323.207031 684.996094 319.824219 681.070312 319.855469 C 676.988281 319.890625 673.375 323.453125 673.476562 327.335938 Z M 673.476562 327.335938 " fill-opacity="1" fill-rule="nonzero"/><path fill="rgb(64.709473%, 47.839355%, 23.919678%)" d="M 696.171875 294.421875 C 692.472656 294.359375 689.199219 297.527344 689.121094 301.238281 C 689.042969 305.085938 692.046875 308.066406 695.992188 308.058594 C 699.890625 308.050781 702.746094 305.28125 702.816406 301.4375 C 702.882812 297.925781 699.617188 294.476562 696.171875 294.421875 Z M 696.171875 294.421875 " fill-opacity="1" fill-rule="nonzero"/><path fill="rgb(64.709473%, 47.839355%, 23.919678%)" d="M 698.144531 342.203125 C 698.140625 346.820312 702.285156 351.242188 706.878906 351.082031 C 711.742188 350.90625 715.367188 347.710938 715.75 342.390625 C 715.757812 337.722656 711.589844 333.449219 707.054688 333.46875 C 702.386719 333.488281 698.144531 337.644531 698.144531 342.203125 Z M 698.144531 342.203125 " fill-opacity="1" fill-rule="nonzero"/><path fill="rgb(64.709473%, 47.839355%, 23.919678%)" d="M 690.433594 275.128906 C 687.328125 275.21875 684.679688 277.953125 684.757812 280.988281 C 684.832031 284.003906 687.710938 286.773438 690.632812 286.640625 C 693.527344 286.507812 696.210938 283.746094 696.207031 280.90625 C 696.203125 277.910156 693.339844 275.046875 690.433594 275.128906 Z M 690.433594 275.128906 " fill-opacity="1" fill-rule="nonzero"/><path fill="rgb(64.709473%, 47.839355%, 23.919678%)" d="M 731.246094 263.898438 C 728.261719 263.894531 725.355469 266.761719 725.238281 269.824219 C 725.121094 272.894531 728.050781 275.769531 731.320312 275.792969 C 734.738281 275.816406 737.027344 273.527344 737.089844 270.019531 C 737.148438 266.613281 734.566406 263.910156 731.246094 263.898438 Z M 731.246094 263.898438 " fill-opacity="1" fill-rule="nonzero"/><path fill="rgb(64.709473%, 47.839355%, 23.919678%)" d="M 728.867188 246.210938 C 729.3125 248.023438 729.578125 249.8125 729.671875 251.554688 C 730.011719 250.90625 730.253906 250.183594 730.238281 249.339844 C 730.214844 248 729.707031 246.9375 728.867188 246.210938 Z M 728.867188 246.210938 " fill-opacity="1" fill-rule="nonzero"/><path fill="rgb(64.709473%, 47.839355%, 23.919678%)" d="M 709.207031 295.78125 C 709.390625 300.085938 712.929688 303.226562 716.523438 302.898438 C 720.453125 302.890625 723.484375 299.765625 723.441406 295.769531 C 723.402344 292.0625 720.226562 288.875 716.472656 288.777344 C 712.769531 288.675781 709.050781 292.109375 709.207031 295.78125 Z M 709.207031 295.78125 " fill-opacity="1" fill-rule="nonzero"/><path fill="rgb(64.709473%, 47.839355%, 23.919678%)" d="M 718.527344 228.808594 C 719.195312 229.449219 719.847656 230.097656 720.449219 230.761719 C 720.464844 230.765625 720.484375 230.777344 720.5 230.78125 C 721.160156 230.894531 722.011719 229.898438 723.28125 229.0625 C 721.921875 228.054688 721.132812 227.070312 720.242188 226.960938 C 719.714844 226.898438 718.5 228.222656 718.527344 228.808594 Z M 718.527344 228.808594 " fill-opacity="1" fill-rule="nonzero"/><path fill="rgb(96.078491%, 69.018555%, 17.248535%)" d="M 3.210938 366.140625 C 3.210938 366.140625 73.039062 284.746094 153.300781 327.0625 C 233.5625 369.378906 284.386719 330.117188 284.386719 330.117188 C 284.386719 330.117188 213.675781 423.960938 134.789062 381.585938 C 55.902344 339.214844 3.210938 366.140625 3.210938 366.140625 Z M 3.210938 366.140625 " fill-opacity="1" fill-rule="nonzero"/><path fill="rgb(11.369324%, 11.369324%, 10.5896%)" d="M 177.125 394.578125 C 162.199219 394.578125 147.660156 390.871094 133.804688 383.429688 C 56.910156 342.125 4.675781 367.738281 4.15625 368 C 3.273438 368.453125 2.1875 368.214844 1.574219 367.429688 C 0.957031 366.644531 0.980469 365.535156 1.628906 364.78125 C 2.351562 363.9375 19.648438 343.972656 47.15625 328.902344 C 83.769531 308.847656 120.808594 307.574219 154.273438 325.21875 C 195.082031 346.730469 227.929688 346.46875 248.300781 342.460938 C 270.375 338.117188 282.992188 328.5625 283.117188 328.464844 C 283.941406 327.828125 285.117188 327.902344 285.855469 328.636719 C 286.597656 329.371094 286.683594 330.539062 286.054688 331.375 C 285.878906 331.613281 267.84375 355.332031 240.324219 373.484375 C 219.035156 387.523438 197.710938 394.578125 177.125 394.578125 Z M 47.855469 355.632812 C 69.1875 355.632812 99.738281 360.394531 135.777344 379.75 C 167.738281 396.917969 202.105469 393.65625 237.929688 370.0625 C 254.273438 359.300781 267.203125 346.523438 274.886719 338.085938 C 268.789062 341.027344 260.203125 344.347656 249.347656 346.507812 C 228.269531 350.703125 194.332031 351.054688 152.328125 328.910156 C 119.734375 311.726562 85.058594 312.9375 49.269531 332.507812 C 31.96875 341.96875 18.578125 353.671875 11.191406 360.859375 C 17.496094 358.890625 27 356.660156 39.289062 355.894531 C 41.949219 355.726562 44.808594 355.632812 47.855469 355.632812 Z M 47.855469 355.632812 " fill-opacity="1" fill-rule="nonzero"/><path fill="rgb(96.078491%, 69.018555%, 17.248535%)" d="M 81.914062 487.5 C 81.914062 487.5 128.210938 437.6875 178 466.527344 C 227.792969 495.363281 260.984375 471.769531 260.984375 471.769531 C 260.984375 471.769531 213.816406 529.445312 164.898438 500.609375 C 115.980469 471.769531 81.914062 487.5 81.914062 487.5 Z M 81.914062 487.5 " fill-opacity="1" fill-rule="nonzero"/><path fill="rgb(11.369324%, 11.369324%, 10.5896%)" d="M 193.6875 510.722656 C 183.28125 510.722656 173.25 507.953125 163.839844 502.40625 C 116.410156 474.445312 83.121094 489.242188 82.789062 489.390625 C 81.886719 489.8125 80.8125 489.53125 80.226562 488.722656 C 79.640625 487.914062 79.707031 486.804688 80.386719 486.074219 C 80.863281 485.566406 128.402344 435.382812 179.046875 464.71875 C 226.988281 492.484375 259.460938 470.292969 259.78125 470.0625 C 260.636719 469.460938 261.804688 469.582031 262.511719 470.34375 C 263.222656 471.109375 263.261719 472.28125 262.601562 473.085938 C 262.109375 473.6875 250.375 487.910156 232.363281 498.785156 C 219.207031 506.738281 206.175781 510.722656 193.6875 510.722656 Z M 107.019531 481.050781 C 121.796875 481.050781 142.109375 484.75 165.960938 498.808594 C 201.449219 519.734375 236.535156 492.980469 251.648438 478.546875 C 237.722656 483.585938 210.945312 488.019531 176.957031 468.332031 C 139.960938 446.902344 104.421875 470.753906 90.085938 482.804688 C 94.375 481.863281 100.089844 481.050781 107.019531 481.050781 Z M 107.019531 481.050781 " fill-opacity="1" fill-rule="nonzero"/><path fill="rgb(11.369324%, 11.369324%, 10.5896%)" d="M 594.25 510.832031 C 569.210938 510.835938 544.167969 502.339844 516.101562 461.503906 C 515.546875 460.691406 515.628906 459.601562 516.304688 458.886719 C 516.976562 458.171875 518.058594 458.027344 518.902344 458.535156 C 550.976562 477.9375 588.894531 474.109375 605.628906 459.433594 C 612.277344 453.609375 618.753906 443.363281 611.890625 427.664062 C 607.144531 416.8125 598.800781 409.414062 587.097656 405.675781 C 563.4375 398.121094 527.511719 406.695312 490.996094 428.613281 C 459.074219 447.777344 436.058594 459.441406 412.859375 459.445312 C 394.40625 459.445312 375.835938 452.066406 352.546875 435.214844 C 351.761719 434.644531 351.472656 433.605469 351.851562 432.710938 C 352.230469 431.8125 353.175781 431.300781 354.136719 431.46875 C 408.472656 441.148438 445.09375 422.011719 449.640625 405.082031 C 452.515625 394.371094 443.347656 384.289062 424.484375 377.425781 C 364.710938 355.683594 288.617188 399.160156 287.855469 399.601562 C 287.019531 400.085938 285.960938 399.933594 285.296875 399.230469 C 284.632812 398.53125 284.535156 397.46875 285.0625 396.65625 C 353.09375 292.027344 498.382812 338.683594 546.128906 354.011719 C 551.527344 355.746094 555.792969 357.117188 558.515625 357.8125 C 585.441406 364.703125 609.710938 360.34375 620.335938 346.699219 C 627.574219 337.410156 627.375 324.585938 619.777344 310.589844 C 606.871094 286.804688 567.6875 282.40625 509.441406 298.207031 C 442.898438 316.261719 428.265625 311.179688 378.960938 252.882812 C 378.292969 252.09375 378.304688 250.929688 378.992188 250.15625 C 379.675781 249.378906 380.824219 249.222656 381.691406 249.785156 C 423.65625 277.125 465.570312 259.097656 523.578125 234.148438 C 530.457031 231.1875 537.570312 228.128906 544.917969 225.046875 C 608.65625 198.304688 648.824219 227.902344 684.257812 254.015625 C 687.910156 256.707031 691.683594 259.488281 695.367188 262.117188 C 705.28125 269.203125 714.1875 271.144531 720.4375 267.589844 C 725.457031 264.734375 728.191406 258.359375 727.574219 250.941406 C 726.707031 240.519531 719.042969 226.917969 700.132812 220 C 699.21875 219.664062 698.660156 218.742188 698.78125 217.777344 C 698.902344 216.8125 699.675781 216.058594 700.644531 215.960938 C 748.296875 211.253906 775.226562 232.628906 789.421875 251.390625 C 804.75 271.648438 808.757812 292.695312 808.921875 293.582031 C 809.046875 294.265625 808.824219 294.964844 808.332031 295.449219 C 807.835938 295.9375 807.125 296.144531 806.449219 296.003906 C 789.125 292.441406 770.40625 296.96875 753.722656 308.746094 C 734.820312 322.09375 721.769531 342.65625 718.816406 363.75 C 718.699219 364.605469 718.0625 365.300781 717.222656 365.492188 C 687.929688 372.308594 670.683594 393.636719 671.085938 422.550781 C 671.492188 451.664062 689.5 477.21875 712.980469 481.996094 C 714.015625 482.207031 714.730469 483.15625 714.644531 484.203125 C 714.5625 485.253906 713.710938 486.082031 712.660156 486.125 C 693.578125 486.976562 681.21875 491.574219 668.128906 496.445312 C 655.238281 501.242188 641.910156 506.203125 620.742188 508.722656 C 611.828125 509.789062 603.039062 510.832031 594.25 510.832031 Z M 524.796875 466.464844 C 558.921875 511.886719 587.453125 508.488281 620.246094 504.582031 C 640.917969 502.121094 654.011719 497.246094 666.671875 492.535156 C 677.597656 488.472656 688.023438 484.589844 702.195312 482.816406 C 681.867188 473.464844 667.28125 449.4375 666.910156 422.609375 C 666.484375 392.054688 684.390625 369.402344 714.894531 361.765625 C 718.375 340.046875 731.90625 319.039062 751.3125 305.339844 C 767.941406 293.601562 786.566406 288.691406 804.121094 291.355469 C 802.453125 284.878906 797.476562 268.910156 785.996094 253.789062 C 767.792969 229.808594 742.023438 218.3125 709.308594 219.550781 C 724.460938 227.726562 730.886719 240.476562 731.726562 250.601562 C 732.480469 259.65625 728.945312 267.558594 722.496094 271.222656 C 718.007812 273.773438 708.203125 276.425781 692.9375 265.519531 C 689.234375 262.871094 685.445312 260.078125 681.78125 257.378906 C 645.554688 230.683594 608.089844 203.074219 546.527344 228.898438 C 539.199219 231.972656 532.09375 235.03125 525.222656 237.984375 C 487.265625 254.308594 456.050781 267.730469 426.992188 267.734375 C 414.347656 267.734375 402.117188 265.195312 389.902344 259.25 C 432.039062 307.714844 447.023438 310.820312 508.347656 294.183594 C 589.707031 272.109375 615.378906 293.742188 623.445312 308.597656 C 631.878906 324.144531 631.945312 338.585938 623.625 349.265625 C 611.980469 364.21875 586.019531 369.164062 557.480469 361.859375 C 554.632812 361.128906 550.316406 359.742188 544.851562 357.988281 C 498.960938 343.25 361.496094 299.117188 293.335938 392.011719 C 314.433594 381.527344 375.578125 355.195312 425.90625 373.503906 C 447.054688 381.199219 457.171875 393.101562 453.664062 406.164062 C 448.144531 426.710938 410.773438 443.015625 362.328125 436.933594 C 408.417969 467.582031 434.820312 457.464844 488.847656 425.035156 C 526.933594 402.171875 563.207031 393.667969 588.363281 401.699219 C 601.261719 405.820312 610.460938 413.992188 615.707031 425.988281 C 621.855469 440.042969 619.25 453.039062 608.378906 462.570312 C 591.941406 476.984375 556.601562 481.742188 524.796875 466.464844 Z M 524.796875 466.464844 " fill-opacity="1" fill-rule="nonzero"/></svg>