<?xml version="1.0" encoding="UTF-8"?><svg xmlns="http://www.w3.org/2000/svg" xmlns:xlink="http://www.w3.org/1999/xlink" contentScriptType="text/ecmascript" width="810" zoomAndPan="magnify" contentStyleType="text/css" viewBox="0 0 810 809.999993" height="809.999993" preserveAspectRatio="xMidYMid meet" version="1.0"><defs><clipPath id="clip-0"><path d="M 179 457.019531 L 220 457.019531 L 220 671.144531 L 179 671.144531 Z M 179 457.019531 " clip-rule="nonzero"/></clipPath><clipPath id="clip-1"><path d="M 317 422.03125 L 358.761719 422.03125 L 358.761719 671.144531 L 317 671.144531 Z M 317 422.03125 " clip-rule="nonzero"/></clipPath><clipPath id="clip-2"><path d="M 456 366.050781 L 496.980469 366.050781 L 496.980469 671.144531 L 456 671.144531 Z M 456 366.050781 " clip-rule="nonzero"/></clipPath><clipPath id="clip-3"><path d="M 594 293 L 635.203125 293 L 635.203125 671.144531 L 594 671.144531 Z M 594 293 " clip-rule="nonzero"/></clipPath><clipPath id="clip-4"><path d="M 539 96.644531 L 737.34375 96.644531 L 737.34375 294 L 539 294 Z M 539 96.644531 " clip-rule="nonzero"/></clipPath></defs><g clip-path="url(#clip-0)"><path fill="rgb(38.038635%, 38.038635%, 38.038635%)" d="M 219.71875 477.628906 L 219.71875 651.007812 C 219.71875 662.132812 210.691406 671.160156 199.566406 671.160156 C 188.4375 671.160156 179.410156 662.132812 179.410156 651.007812 L 179.410156 477.628906 C 179.410156 466.503906 188.4375 457.476562 199.566406 457.476562 C 210.691406 457.476562 219.71875 466.503906 219.71875 477.628906 " fill-opacity="1" fill-rule="evenodd"/></g><g clip-path="url(#clip-1)"><path fill="rgb(38.038635%, 38.038635%, 38.038635%)" d="M 358.207031 442.75 L 358.207031 651.007812 C 358.207031 662.132812 349.179688 671.160156 338.050781 671.160156 C 326.925781 671.160156 317.898438 662.132812 317.898438 651.007812 L 317.898438 442.75 C 317.898438 431.617188 326.925781 422.597656 338.050781 422.597656 C 349.179688 422.597656 358.207031 431.617188 358.207031 442.75 " fill-opacity="1" fill-rule="evenodd"/></g><g clip-path="url(#clip-2)"><path fill="rgb(38.038635%, 38.038635%, 38.038635%)" d="M 496.699219 386.90625 L 496.699219 651.007812 C 496.699219 662.132812 487.671875 671.160156 476.546875 671.160156 C 465.417969 671.160156 456.390625 662.132812 456.390625 651.007812 L 456.390625 386.90625 C 456.390625 375.78125 465.417969 366.753906 476.546875 366.753906 C 487.671875 366.753906 496.699219 375.78125 496.699219 386.90625 " fill-opacity="1" fill-rule="evenodd"/></g><g clip-path="url(#clip-3)"><path fill="rgb(38.038635%, 38.038635%, 38.038635%)" d="M 635.1875 314.003906 L 635.1875 651.007812 C 635.1875 662.132812 626.160156 671.160156 615.035156 671.160156 C 603.90625 671.160156 594.878906 662.132812 594.878906 651.007812 L 594.878906 314.003906 C 594.878906 302.878906 603.90625 293.851562 615.035156 293.851562 C 626.160156 293.851562 635.1875 302.878906 635.1875 314.003906 " fill-opacity="1" fill-rule="evenodd"/></g><path fill="rgb(82.749939%, 18.429565%, 18.429565%)" d="M 101.53125 435.457031 C 90.464844 434.945312 81.863281 425.554688 82.339844 414.484375 C 82.820312 403.402344 92.238281 394.757812 103.320312 395.25 C 121.5625 396.054688 140.882812 394.957031 159.023438 393.390625 C 207.082031 389.234375 255.226562 379.757812 301.507812 366.269531 C 457.367188 320.839844 591.460938 230.128906 696.863281 107.050781 C 704.058594 98.652344 716.832031 97.65625 725.238281 104.851562 C 733.644531 112.046875 734.644531 124.824219 727.445312 133.230469 C 616.941406 262.269531 476.210938 357.109375 312.855469 404.746094 C 263.953125 419.003906 213.132812 429.007812 162.359375 433.433594 C 147.726562 434.707031 132.996094 435.539062 118.304688 435.683594 C 112.746094 435.746094 107.085938 435.738281 101.53125 435.457031 " fill-opacity="1" fill-rule="evenodd"/><g clip-path="url(#clip-4)"><path fill="rgb(82.749939%, 18.429565%, 18.429565%)" d="M 550.003906 96.675781 C 544.460938 96.675781 539.964844 101.171875 539.964844 106.714844 C 539.964844 113.671875 726.148438 293.996094 727.269531 293.996094 C 732.8125 293.996094 737.308594 289.5 737.308594 283.957031 L 737.308594 107.605469 C 737.335938 107.308594 737.351562 107.015625 737.351562 106.714844 C 737.351562 101.152344 732.839844 96.636719 727.269531 96.636719 L 727.269531 96.675781 L 550.003906 96.675781 " fill-opacity="1" fill-rule="nonzero"/></g></svg>