<?xml version="1.0" encoding="UTF-8"?>
<svg xmlns="http://www.w3.org/2000/svg" xmlns:xlink="http://www.w3.org/1999/xlink" viewBox="0 0 240 240" width="240px" height="240px">
<g id="surface3709887">
<path style=" stroke:none;fill-rule:evenodd;fill:rgb(18.039216%,80.000001%,44.313726%);fill-opacity:1;" d="M 40 80 L 40 143.230469 C 33.273438 144.5 29.746094 145 24.390625 145 C 8.351562 144.984375 0 137.824219 0 124.078125 C 0 110.835938 8.855469 102.238281 22.578125 102.238281 C 24.710938 102.238281 26.328125 102.40625 28.296875 102.910156 L 28.296875 80 Z M 28.296875 113.359375 C 26.753906 112.859375 25.488281 112.691406 23.863281 112.691406 C 17.226562 112.691406 13.386719 116.734375 13.386719 123.828125 C 13.386719 130.734375 17.054688 134.546875 23.78125 134.546875 C 25.234375 134.546875 26.414062 134.464844 28.296875 134.210938 Z M 28.296875 113.359375 "/>
<path style=" stroke:none;fill-rule:evenodd;fill:rgb(18.039216%,80.000001%,44.313726%);fill-opacity:1;" d="M 60 100.230469 L 60 133.320312 C 60 143.699219 59.226562 149.441406 56.941406 153.738281 C 54.808594 157.875 52.003906 160.484375 46.210938 163.363281 L 34.023438 157.621094 C 39.820312 154.925781 42.628906 152.546875 44.421875 148.910156 C 46.296875 145.195312 46.890625 140.140625 46.890625 128.824219 L 46.890625 100.21875 L 60 100.21875 Z M 60 100.230469 "/>
<path style=" stroke:none;fill-rule:evenodd;fill:rgb(18.039216%,80.000001%,44.313726%);fill-opacity:1;" d="M 46.886719 80 L 60 80 L 60 93.566406 L 46.886719 93.566406 Z M 46.886719 80 "/>
<path style=" stroke:none;fill-rule:evenodd;fill:rgb(18.039216%,80.000001%,44.313726%);fill-opacity:1;" d="M 68.671875 104.378906 C 74.351562 101.621094 79.785156 100.40625 85.710938 100.40625 C 92.316406 100.40625 96.65625 102.21875 98.574219 105.769531 C 99.648438 107.753906 100 110.339844 100 115.875 L 100 142.910156 C 94.238281 143.765625 86.96875 144.378906 81.636719 144.378906 C 70.855469 144.378906 66.019531 140.488281 66.019531 131.855469 C 66.019531 122.515625 72.445312 118.199219 88.226562 116.824219 L 88.226562 113.898438 C 88.226562 111.484375 87.050781 110.609375 83.804688 110.609375 C 79.054688 110.609375 73.703125 112 68.683594 114.671875 Z M 88.804688 125.535156 C 80.296875 126.390625 77.53125 127.78125 77.53125 131.238281 C 77.53125 133.828125 79.121094 135.046875 82.628906 135.046875 C 84.550781 135.046875 86.304688 134.875 88.804688 134.445312 Z M 88.804688 125.535156 "/>
<path style=" stroke:none;fill-rule:evenodd;fill:rgb(18.039216%,80.000001%,44.313726%);fill-opacity:1;" d="M 107.089844 103.464844 C 114.691406 101.359375 120.949219 100.398438 127.296875 100.398438 C 133.886719 100.398438 138.660156 101.984375 141.488281 105.050781 C 144.148438 107.941406 145 111.109375 145 117.863281 L 145 144.378906 L 132.128906 144.378906 L 132.128906 118.40625 C 132.128906 113.214844 130.453125 111.285156 125.871094 111.285156 C 124.113281 111.285156 122.523438 111.460938 119.941406 112.261719 L 119.941406 144.386719 L 107.089844 144.386719 Z M 107.089844 103.464844 "/>
<path style=" stroke:none;fill-rule:evenodd;fill:rgb(18.039216%,80.000001%,44.313726%);fill-opacity:1;" d="M 150.886719 150.03125 C 155.480469 152.460938 160.078125 153.578125 164.945312 153.578125 C 173.550781 153.578125 177.214844 151.214844 177.214844 142.699219 L 177.214844 142.441406 C 174.664062 143.730469 172.089844 144.269531 168.695312 144.269531 C 157.183594 144.269531 150 136.535156 150 124.285156 C 150 109.070312 160.703125 100.476562 179.871094 100.476562 C 185.5 100.476562 190.703125 101.078125 197.003906 102.390625 L 192.511719 112.039062 C 189.015625 111.351562 192.226562 111.933594 189.589844 111.679688 L 189.589844 113.074219 L 189.761719 118.726562 L 189.84375 126.03125 C 189.929688 127.859375 189.929688 129.679688 190.015625 131.511719 L 190.015625 135.160156 C 190.015625 146.636719 189.066406 150.816406 186.261719 155.261719 C 182.171875 161.769531 175.089844 164.996094 165.03125 164.996094 C 159.910156 164.996094 155.480469 164.21875 150.886719 162.390625 Z M 176.960938 111.253906 L 175.585938 111.253906 C 173.035156 111.171875 170.046875 111.859375 167.996094 113.171875 C 164.855469 114.996094 163.230469 118.304688 163.230469 122.988281 C 163.230469 129.675781 166.476562 133.5 172.269531 133.5 C 174.058594 133.5 175.515625 133.15625 177.203125 132.640625 L 177.203125 128.023438 C 177.203125 126.453125 177.121094 124.714844 177.121094 122.890625 L 177.035156 116.71875 L 176.949219 112.289062 L 176.949219 111.253906 Z M 176.960938 111.253906 "/>
<path style=" stroke:none;fill-rule:evenodd;fill:rgb(18.039216%,80.000001%,44.313726%);fill-opacity:1;" d="M 217.828125 100.230469 C 231.59375 100.230469 240 108.53125 240 121.96875 C 240 135.75 231.238281 144.386719 217.28125 144.386719 C 203.5 144.386719 195 136.089844 195 122.734375 C 195.023438 108.871094 203.785156 100.230469 217.828125 100.230469 Z M 217.546875 133.761719 C 222.828125 133.761719 225.949219 129.570312 225.949219 122.289062 C 225.949219 115.09375 222.914062 110.820312 217.636719 110.820312 C 212.171875 110.820312 209.046875 115.011719 209.046875 122.289062 C 209.050781 129.570312 212.191406 133.761719 217.546875 133.761719 Z M 217.546875 133.761719 "/>
</g>
</svg>
