<?xml version="1.0" encoding="UTF-8"?><svg xmlns="http://www.w3.org/2000/svg" xmlns:xlink="http://www.w3.org/1999/xlink" contentScriptType="text/ecmascript" width="810" zoomAndPan="magnify" contentStyleType="text/css" viewBox="0 0 810 809.999993" height="809.999993" preserveAspectRatio="xMidYMid meet" version="1.0"><defs><clipPath id="clip-0"><path d="M 181 3 L 655.460938 3 L 655.460938 796 L 181 796 Z M 181 3 " clip-rule="nonzero"/></clipPath></defs><path fill="rgb(94.509888%, 35.289001%, 36.079407%)" d="M 391.195312 795.800781 C 396.214844 798.871094 395.355469 796.0625 402.847656 797.308594 C 406.074219 797.851562 409.742188 799.765625 414.285156 800.042969 C 417.792969 800.253906 421.777344 802.0625 426.074219 801.957031 C 429.691406 801.957031 433.726562 801.394531 437.882812 801.007812 C 441.550781 800.65625 444.902344 796.257812 449.007812 795.605469 C 452.691406 795.027344 456.410156 794.328125 460.410156 793.46875 C 464.410156 792.609375 469.289062 794.046875 473.570312 792.679688 C 477.851562 791.308594 482.0625 790.835938 486.183594 789.171875 C 490.308594 787.503906 492.816406 782.785156 496.800781 780.960938 C 500.78125 779.136719 506.433594 780.960938 510.308594 779.035156 C 514.1875 777.105469 517.117188 773.175781 520.835938 771.125 C 524.554688 769.070312 528.378906 766.652344 532.011719 764.492188 C 535.644531 762.335938 538.730469 758.566406 542.242188 756.339844 C 546.136719 753.882812 551.523438 754.144531 554.855469 751.867188 C 558.875 749.128906 562.734375 746.851562 565.734375 744.589844 C 570.839844 740.746094 572.558594 735.820312 573.804688 734.066406 C 575.050781 732.3125 579.066406 729.574219 581.101562 723.894531 C 582.3125 720.492188 583.488281 716.421875 584.859375 712.089844 C 586.050781 708.390625 587.824219 704.566406 589.070312 700.460938 C 590.316406 696.359375 591.558594 692.65625 592.71875 688.675781 C 593.875 684.695312 593.191406 680.167969 594.296875 676.292969 C 595.402344 672.417969 596.910156 668.242188 597.964844 664.507812 C 599.191406 660.125 597.28125 655.246094 598.226562 651.808594 C 600.210938 644.566406 603.316406 646.707031 603.191406 640.550781 C 603.050781 634.0625 604.121094 633.9375 603.316406 627.5 C 602.507812 621.066406 601.332031 621.222656 600.527344 614.769531 C 599.71875 608.316406 602.015625 608.050781 601.191406 601.613281 C 600.367188 595.179688 598 595.476562 597.175781 589.039062 C 596.351562 582.601562 594.15625 582.867188 593.351562 576.429688 C 592.542969 569.992188 596.070312 569.539062 595.246094 563.101562 C 594.421875 556.664062 593.035156 556.839844 592.226562 550.386719 C 591.417969 543.929688 591.246094 543.964844 590.472656 537.53125 C 589.699219 531.09375 593.4375 529.847656 590.980469 523.832031 C 588.523438 517.816406 586.804688 518.429688 582.964844 513.449219 C 579.121094 508.46875 578.03125 509.328125 574.191406 504.363281 C 570.347656 499.402344 568.59375 500.75 564.769531 495.789062 C 560.945312 490.824219 561.855469 490.105469 558.015625 485.125 C 554.171875 480.144531 553.417969 480.757812 549.59375 475.792969 C 545.769531 470.832031 546.1875 470.53125 542.363281 465.515625 C 538.539062 460.5 537.679688 461.203125 533.855469 456.238281 C 530.03125 451.277344 529.800781 451.433594 525.960938 446.46875 C 522.117188 441.507812 525.082031 439.210938 521.257812 434.195312 C 517.433594 429.175781 516.609375 429.84375 512.785156 424.863281 C 508.957031 419.882812 508.992188 419.863281 505.152344 414.902344 C 501.308594 409.9375 500.429688 410.605469 496.589844 405.640625 C 492.746094 400.679688 491.167969 401.886719 487.324219 396.871094 C 483.484375 391.855469 486.34375 389.855469 483.078125 384.59375 C 480.679688 381.046875 478.578125 377.328125 476.78125 373.441406 C 474.042969 367.601562 474.621094 367.320312 471.886719 361.460938 C 469.148438 355.605469 466.5 356.847656 463.746094 350.9375 C 460.992188 345.027344 460.375 345.378906 457.640625 339.523438 C 454.902344 333.664062 455.621094 333.3125 452.882812 327.457031 C 450.148438 321.597656 449.375 321.984375 446.570312 316.125 C 443.761719 310.265625 445.234375 309.617188 442.480469 303.847656 C 439.726562 298.078125 441.023438 297.394531 438.269531 291.570312 C 435.515625 285.75 433.007812 286.925781 430.199219 281.046875 C 427.390625 275.171875 431.078125 273.15625 426.691406 268.457031 C 422.304688 263.753906 419.671875 267.261719 413.777344 264.019531 C 407.882812 260.773438 409.777344 257.320312 403.882812 254.074219 C 397.988281 250.828125 397.144531 245.304688 390.949219 247.917969 C 384.757812 250.53125 391.230469 255.441406 389.914062 261.773438 C 388.601562 268.105469 389.230469 268.226562 387.898438 274.558594 C 386.566406 280.890625 383.355469 280.222656 382.019531 286.554688 C 380.6875 292.886719 380.667969 292.871094 379.355469 299.199219 C 378.039062 305.53125 378.039062 305.53125 376.703125 311.847656 C 375.371094 318.160156 379.019531 318.859375 377.6875 325.261719 C 376.351562 331.664062 373.457031 330.980469 372.125 337.3125 C 370.792969 343.644531 373.878906 344.328125 372.476562 350.605469 C 371.074219 356.882812 367.335938 356.128906 366.019531 362.460938 C 364.703125 368.792969 367.371094 369.355469 366.019531 375.6875 C 364.667969 382.015625 361.738281 381.402344 360.40625 387.734375 C 359.070312 394.066406 362.160156 394.75 360.40625 401.046875 C 359.226562 405.011719 357.835938 408.898438 356.230469 412.710938 C 354.140625 418.496094 352.441406 417.96875 350.335938 423.671875 C 348.230469 429.371094 348.386719 429.527344 346.28125 435.316406 C 344.175781 441.105469 343.316406 440.804688 341.210938 446.59375 C 339.105469 452.382812 339.667969 452.589844 337.5625 458.398438 C 335.457031 464.203125 335.050781 464.042969 332.945312 469.832031 C 330.839844 475.621094 331.527344 475.882812 329.4375 481.671875 C 327.351562 487.457031 327.246094 487.457031 325.140625 493.246094 C 323.035156 499.03125 324.628906 499.699219 321.628906 505.101562 C 319.703125 508.921875 317.363281 512.46875 314.613281 515.746094 C 310.699219 520.746094 311.507812 521.375 307.59375 526.375 C 303.683594 531.375 300.839844 529.164062 296.925781 534.164062 C 293.015625 539.160156 296.242188 541.6875 292.332031 546.683594 C 288.417969 551.683594 282.945312 548.613281 280.996094 554.664062 C 279.242188 560.347656 285.277344 560.960938 285.664062 566.941406 C 286.050781 572.921875 281.960938 573.148438 282.347656 579.097656 C 282.734375 585.042969 284.714844 584.917969 285.101562 590.863281 C 285.488281 596.808594 287.121094 596.703125 287.503906 602.648438 C 287.890625 608.59375 286.066406 608.71875 286.433594 614.664062 C 286.804688 620.609375 288.890625 620.484375 289.261719 626.433594 C 289.628906 632.378906 289.960938 632.359375 290.347656 638.324219 C 290.734375 644.285156 288.191406 644.410156 288.136719 650.390625 C 288.144531 654.328125 287.933594 658.257812 287.503906 662.175781 C 286.996094 668.066406 285.277344 667.910156 284.769531 673.820312 C 284.261719 679.730469 287.679688 679.992188 287.171875 685.886719 C 286.664062 691.78125 286.523438 691.78125 286.015625 697.671875 C 285.503906 703.566406 285.609375 703.582031 285.101562 709.492188 C 284.59375 715.402344 279.417969 716.105469 282.101562 721.382812 C 285.101562 727.242188 287.59375 725.417969 293.03125 729.136719 C 298.472656 732.855469 299.734375 730.996094 305.15625 734.730469 C 310.578125 738.46875 309 740.765625 314.417969 744.484375 C 319.839844 748.199219 321.261719 746.238281 326.699219 749.882812 C 332.140625 753.53125 331.246094 754.902344 336.683594 758.652344 C 342.125 762.40625 341.296875 763.546875 346.738281 767.28125 C 352.175781 771.019531 353.894531 768.476562 359.316406 772.191406 C 364.738281 775.910156 363.5625 777.648438 369.003906 781.367188 C 374.441406 785.085938 375.632812 783.417969 380.96875 787.292969 C 386.300781 791.167969 385.566406 792.363281 391.195312 795.800781 Z M 391.195312 795.800781 " fill-opacity="1" fill-rule="nonzero"/><path fill="rgb(88.238525%, 15.289307%, 16.079712%)" d="M 409.128906 282.277344 C 403.320312 280.679688 406.847656 284.328125 403.496094 291.046875 C 401.953125 294.097656 398.425781 297.027344 396.652344 301.234375 C 395.214844 304.636719 397.566406 309.882812 396.144531 313.933594 C 394.863281 317.527344 393.285156 321.140625 392.144531 325.191406 C 391.089844 328.910156 387.144531 332.085938 386.285156 336.136719 C 385.425781 340.1875 388.230469 344.519531 387.671875 348.589844 C 387.109375 352.65625 386.371094 356.324219 386.125 360.410156 C 385.878906 364.496094 383.003906 368.300781 383.089844 372.386719 C 383.179688 376.476562 383.792969 380.421875 384.230469 384.472656 C 384.667969 388.523438 384.039062 392.664062 384.390625 396.941406 C 384.738281 401.222656 386.808594 404.992188 387.039062 409.21875 C 387.265625 413.445312 385.390625 417.53125 385.511719 421.742188 C 385.632812 425.949219 388.285156 429.96875 388.300781 434.140625 C 388.320312 438.316406 388.582031 442.488281 388.476562 446.644531 C 388.371094 450.800781 384.863281 454.820312 384.632812 458.921875 C 384.40625 463.027344 384.125 467.199219 383.738281 471.199219 C 383.355469 475.199219 384.984375 479.722656 384.441406 483.773438 C 383.898438 487.828125 385.566406 492.542969 384.792969 496.507812 C 383.96875 500.753906 380.808594 504.363281 379.738281 508.207031 C 378.5625 512.433594 375.792969 515.765625 374.28125 519.378906 C 372.527344 523.515625 373.125 528.460938 370.96875 531.65625 C 368.566406 535.253906 365.585938 538.273438 362.019531 540.722656 C 358.511719 543.019531 354.125 545.984375 349.738281 545.984375 C 344.71875 545.984375 340.402344 542.476562 337.015625 540.265625 C 333.261719 537.847656 332.105469 533.25 330 529.425781 C 327.894531 525.605469 324.734375 521.972656 323.734375 518.027344 C 321.980469 510.890625 325.664062 510.34375 321.367188 505.328125 C 317.070312 500.3125 321.929688 509.730469 320.59375 517.605469 C 320.015625 521.113281 318.945312 525.253906 318.261719 530.042969 C 317.734375 533.863281 316.894531 538.003906 316.347656 542.527344 C 315.894531 546.492188 314.347656 550.597656 313.945312 555.015625 C 313.558594 559.03125 312.417969 563.207031 312.191406 567.574219 C 311.894531 571.660156 313.945312 576.027344 313.664062 580.359375 C 313.382812 584.691406 312.207031 588.636719 312.105469 592.953125 C 312 597.265625 309.910156 601.335938 309.910156 605.613281 C 309.910156 609.894531 314.453125 613.945312 314.578125 618.222656 C 314.699219 622.503906 310.523438 626.800781 310.769531 631.042969 C 311.015625 635.289062 311.664062 639.480469 312.050781 643.726562 C 312.4375 647.96875 315.332031 651.863281 315.859375 656 C 316.382812 660.140625 316.261719 664.457031 316.929688 668.628906 C 317.59375 672.804688 318.351562 676.941406 319.191406 681.082031 C 320.035156 685.222656 322.59375 688.9375 323.628906 693.027344 C 324.664062 697.113281 325.386719 701.214844 326.699219 705.300781 C 328.015625 709.390625 329.667969 713.140625 331.140625 717.089844 C 332.613281 721.035156 330.839844 726.367188 332.5625 730.207031 C 334.28125 734.046875 337.824219 737.117188 339.84375 740.835938 C 341.859375 744.554688 345.683594 747.132812 347.949219 750.691406 C 350.210938 754.25 349.230469 760.144531 351.789062 763.496094 C 354.351562 766.84375 360.738281 767.003906 363.617188 770.089844 C 366.492188 773.175781 367 778.578125 370.175781 781.402344 C 373.351562 784.226562 377.933594 785.191406 381.371094 787.679688 C 384.808594 790.171875 386.738281 794.519531 390.441406 796.675781 C 385.371094 792.890625 386.265625 791.679688 381.054688 788.082031 C 375.84375 784.488281 374.863281 785.910156 369.652344 782.3125 C 364.441406 778.71875 363.84375 779.558594 358.632812 775.964844 C 353.421875 772.367188 354.949219 770.125 349.738281 766.546875 C 344.527344 762.96875 344.878906 762.425781 339.648438 758.828125 C 334.421875 755.234375 335.085938 754.320312 329.859375 750.8125 C 324.628906 747.304688 324.910156 746.851562 319.648438 743.253906 C 314.382812 739.660156 312.4375 742.554688 307.207031 738.957031 C 301.980469 735.363281 303.578125 733.695312 299.101562 729.171875 C 294.628906 724.648438 295.171875 724.875 291.699219 719.699219 C 288.226562 714.527344 288.664062 714.210938 285.191406 709.039062 C 281.714844 703.863281 279.925781 705.074219 276.417969 699.898438 C 272.90625 694.726562 273.804688 694.128906 270.328125 688.9375 C 266.855469 683.746094 268.03125 682.957031 264.558594 677.765625 C 261.082031 672.574219 259.292969 673.769531 255.785156 668.578125 C 252.273438 663.386719 254.03125 662.210938 250.609375 657.019531 C 247.1875 651.828125 243.011719 654.582031 239.539062 649.390625 C 236.0625 644.199219 238.363281 642.65625 234.886719 637.464844 C 231.414062 632.273438 228.835938 633.378906 227.519531 627.273438 C 226.203125 621.171875 226.765625 620.890625 227.871094 614.910156 C 228.976562 608.929688 232.097656 609.507812 233.132812 603.542969 C 234.167969 597.582031 232.90625 597.320312 233.992188 591.269531 C 235.082031 585.21875 236.238281 585.496094 237.328125 579.515625 C 238.414062 573.535156 237.730469 573.394531 238.328125 567.34375 C 238.957031 560.875 238.152344 560.855469 238.328125 554.347656 C 238.503906 547.84375 236.835938 547.808594 236.976562 541.300781 C 237.117188 534.792969 238.957031 534.828125 239.097656 528.324219 C 239.238281 521.816406 237.484375 521.78125 237.609375 515.273438 C 237.730469 508.765625 241.46875 508.855469 241.609375 502.347656 C 241.75 495.839844 241.886719 495.839844 242.011719 489.316406 C 242.132812 482.792969 239.625 482.757812 239.765625 476.25 C 239.90625 469.742188 238.851562 469.726562 238.976562 463.203125 C 239.097656 456.679688 235.46875 454.136719 239.449219 448.980469 C 243.433594 443.824219 246.835938 446.503906 253.136719 444.683594 C 259.433594 442.859375 259.363281 442.613281 265.679688 440.789062 C 271.996094 438.964844 272.558594 440.945312 278.855469 439.035156 C 285.15625 437.121094 285.664062 438.894531 291.960938 437.050781 C 298.261719 435.210938 297.347656 432.054688 303.664062 430.210938 C 309.980469 428.371094 313.332031 433.949219 317.804688 429.144531 C 321.980469 424.6875 315.699219 421.792969 316.71875 415.777344 C 317.734375 409.761719 320.839844 410.289062 321.859375 404.253906 C 322.875 398.222656 321.859375 398.082031 322.964844 391.980469 C 324.070312 385.875 323.945312 385.945312 324.964844 379.929688 C 325.980469 373.914062 327.402344 374.160156 328.472656 368.144531 C 329.542969 362.128906 327.839844 361.832031 328.859375 355.867188 C 329.875 349.90625 329.910156 349.851562 330.929688 343.835938 C 331.945312 337.820312 329.667969 337.433594 330.683594 331.417969 C 331.703125 325.402344 335.949219 326.15625 336.878906 320.089844 C 337.808594 314.019531 334.542969 313.496094 335.5625 307.480469 C 336.578125 301.464844 338.578125 301.796875 339.597656 295.78125 C 340.613281 289.765625 341.71875 289.941406 342.738281 283.925781 C 343.753906 277.910156 343.457031 277.855469 344.492188 271.839844 C 345.527344 265.824219 343.914062 265.527344 344.929688 259.5625 C 345.949219 253.601562 343.175781 252.550781 345.578125 246.832031 C 348.089844 240.746094 352.140625 242.867188 355.859375 237.429688 C 359.582031 231.992188 359.632812 232.046875 363.351562 226.628906 C 367.070312 221.207031 364.246094 219.261719 367.96875 213.824219 C 371.6875 208.386719 374.984375 210.648438 378.703125 205.210938 C 382.425781 199.777344 382.878906 200.089844 386.601562 194.691406 C 390.320312 189.289062 386.601562 186.761719 390.371094 181.324219 C 394.144531 175.886719 393.878906 175.714844 397.566406 170.292969 C 401.25 164.875 405.164062 167.503906 408.882812 162.066406 C 412.601562 156.632812 410.375 155.054688 414.144531 149.667969 C 417.917969 144.285156 419.214844 145.160156 422.917969 139.707031 C 426.621094 134.253906 422.601562 126.605469 429.199219 126.695312 C 435.796875 126.78125 433.058594 133.183594 436.21875 138.707031 C 439.375 144.230469 440.917969 143.40625 444.164062 148.933594 C 447.410156 154.457031 446.253906 155.140625 449.429688 160.683594 C 452.605469 166.226562 452.394531 166.382812 455.621094 171.90625 C 458.851562 177.433594 458.042969 177.921875 461.289062 183.464844 C 464.535156 189.007812 466.710938 187.726562 469.957031 193.25 C 473.203125 198.777344 471.992188 199.496094 475.21875 205.039062 C 478.449219 210.578125 478.273438 210.683594 481.5 216.226562 C 484.730469 221.769531 482.324219 223.242188 485.554688 228.714844 C 488.78125 234.1875 490.113281 233.484375 493.34375 239.027344 C 496.570312 244.570312 496.097656 244.847656 499.34375 250.390625 C 502.589844 255.933594 504.503906 254.8125 507.746094 260.351562 C 510.992188 265.894531 509.027344 267 512.046875 272.628906 C 515.0625 278.261719 514.0625 278.46875 516.75 284.066406 C 519.433594 289.660156 519.890625 289.449219 522.574219 295.042969 C 525.257812 300.640625 525.660156 300.429688 528.34375 306.023438 C 531.03125 311.617188 533.90625 310.25 536.574219 315.84375 C 539.242188 321.441406 536.730469 322.648438 539.398438 328.246094 C 542.066406 333.839844 544.117188 332.875 546.785156 338.46875 C 549.453125 344.0625 547.820312 344.851562 550.503906 350.449219 C 553.1875 356.042969 555.277344 355.042969 557.960938 360.636719 C 560.644531 366.234375 556.523438 368.214844 559.207031 373.808594 C 561.890625 379.402344 564.699219 378.054688 567.382812 383.648438 C 570.066406 389.242188 569.347656 389.59375 572.03125 395.1875 C 574.71875 400.785156 574.015625 401.117188 576.699219 406.710938 C 579.382812 412.304688 578.066406 412.9375 580.753906 418.53125 C 583.4375 424.125 586.015625 422.882812 588.699219 428.476562 C 591.382812 434.070312 589.367188 435.035156 592.050781 440.628906 C 594.734375 446.226562 594.070312 446.558594 596.753906 452.152344 C 599.4375 457.746094 599.894531 457.519531 602.578125 463.113281 C 605.261719 468.710938 608.542969 467.148438 611.226562 472.742188 C 613.914062 478.339844 613.210938 478.671875 615.894531 484.285156 C 618.578125 489.894531 620.160156 489.125 622.914062 494.71875 C 625.667969 500.3125 622.507812 501.734375 625.195312 507.398438 C 627.878906 513.0625 628.160156 512.871094 630.84375 518.464844 C 633.527344 524.058594 637.949219 522.9375 639 528.988281 C 640.054688 535.039062 635.914062 535.496094 635.246094 541.597656 C 634.582031 547.703125 634.351562 547.667969 633.6875 553.769531 C 633.019531 559.875 632.019531 559.75 631.351562 565.855469 C 630.683594 571.957031 634.441406 572.359375 633.773438 578.464844 C 633.105469 584.566406 632.6875 584.515625 632.019531 590.617188 C 631.351562 596.722656 630.265625 596.597656 629.582031 602.703125 C 628.894531 608.804688 625.929688 608.472656 625.265625 614.574219 C 624.597656 620.679688 626.84375 620.925781 626.175781 627.011719 C 625.507812 633.097656 623.542969 632.902344 622.878906 639.007812 C 622.210938 645.109375 626.019531 645.53125 625.351562 651.632812 C 624.683594 657.738281 626.421875 658.648438 624.316406 664.472656 C 622.210938 670.296875 620.4375 669.925781 617.054688 674.996094 C 613.667969 680.066406 613.28125 679.800781 609.894531 684.851562 C 606.507812 689.902344 606 689.585938 602.597656 694.640625 C 599.191406 699.691406 596.226562 697.691406 592.824219 702.742188 C 589.417969 707.792969 590.347656 708.425781 586.945312 713.476562 C 583.542969 718.527344 584.035156 718.875 580.628906 724 C 577.226562 729.121094 579.242188 730.734375 574.855469 734.976562 C 570.472656 739.222656 576.207031 730.207031 577.628906 722.699219 C 578.261719 719.296875 577.382812 714.949219 578.15625 710.421875 C 578.789062 706.722656 578.332031 702.511719 578.996094 698.148438 C 579.59375 694.304688 582.15625 690.570312 582.734375 686.378906 C 583.277344 682.46875 585.71875 678.660156 586.242188 674.503906 C 586.769531 670.347656 586.578125 666.382812 587 662.226562 C 587.417969 658.070312 583.980469 653.808594 584.296875 649.722656 C 584.613281 645.636719 586.453125 641.742188 586.683594 637.691406 C 586.910156 633.640625 588.648438 629.589844 588.734375 625.554688 C 588.824219 621.519531 590.734375 617.292969 590.683594 613.277344 C 590.628906 609.261719 585.3125 605.246094 585.050781 601.28125 C 584.789062 597.320312 587.910156 592.707031 587.382812 588.828125 C 586.691406 584.789062 585.785156 580.796875 584.664062 576.851562 C 583.613281 572.660156 581.402344 568.871094 580.277344 564.871094 C 579.15625 560.875 576.101562 557.242188 574.839844 553.296875 C 573.578125 549.351562 574.59375 544.386719 573.207031 540.476562 C 571.820312 536.566406 569.191406 532.863281 567.644531 529.023438 C 566.101562 525.183594 563.136719 521.691406 561.433594 517.921875 C 559.734375 514.152344 558.820312 509.785156 556.960938 506.082031 C 555.101562 502.382812 555.679688 497.050781 553.664062 493.457031 C 551.644531 489.859375 548.398438 486.546875 546.207031 483.039062 C 544.011719 479.53125 539.1875 477.425781 536.890625 474.023438 C 534.589844 470.621094 532.066406 467.097656 529.539062 463.816406 C 527.011719 460.535156 524.625 456.90625 521.925781 453.75 C 519.222656 450.59375 518.925781 444.980469 516.097656 441.929688 C 513.273438 438.875 507.203125 438.667969 504.238281 435.753906 C 501.273438 432.84375 500.257812 427.582031 497.222656 424.757812 C 494.183594 421.933594 491.957031 417.742188 488.800781 415.058594 C 485.640625 412.375 482.484375 409.253906 479.308594 406.554688 C 476.132812 403.851562 470.535156 403.605469 467.410156 400.90625 C 464.289062 398.207031 460.65625 395.644531 457.535156 392.875 C 454.410156 390.101562 451.570312 386.71875 448.570312 383.804688 C 445.566406 380.894531 441.148438 378.984375 438.320312 375.878906 C 435.496094 372.773438 434.480469 367.898438 431.917969 364.53125 C 429.355469 361.164062 427.988281 357.058594 425.796875 353.410156 C 423.722656 349.761719 421.875 346.003906 420.25 342.136719 C 418.496094 338.363281 413.777344 335.574219 412.496094 331.402344 C 411.304688 327.507812 411.214844 322.964844 410.40625 318.652344 C 409.652344 314.652344 411.25 310.144531 410.847656 305.742188 C 410.476562 301.691406 411.96875 297.515625 411.917969 293.113281 C 411.863281 289.273438 408.933594 286.679688 409.128906 282.277344 Z M 409.128906 282.277344 " fill-opacity="1" fill-rule="nonzero"/><g clip-path="url(#clip-0)"><path fill="rgb(72.938538%, 12.548828%, 15.289307%)" d="M 461.761719 4.820312 C 456.621094 1.3125 456.128906 6.46875 449.09375 10.082031 C 445.972656 11.640625 442.21875 13.589844 438.164062 16.027344 C 434.9375 17.957031 431.144531 19.972656 427.53125 22.53125 C 424.339844 24.726562 422.621094 29.355469 419.179688 32.054688 C 416.09375 34.492188 413.601562 37.773438 410.410156 40.632812 C 407.441406 43.28125 404.882812 46.367188 401.847656 49.402344 C 398.8125 52.4375 395.335938 54.261719 392.496094 57.417969 C 389.652344 60.574219 386.441406 62.871094 383.722656 66.1875 C 381.003906 69.5 378.179688 72.078125 375.792969 75.585938 C 373.40625 79.09375 369.371094 81.144531 367.019531 84.6875 C 364.667969 88.230469 364.089844 92.546875 361.984375 96.195312 C 359.878906 99.84375 360.617188 104.683594 358.6875 108.472656 C 356.753906 112.257812 352.265625 114.382812 350.507812 118.203125 C 348.753906 122.027344 350.210938 126.972656 348.632812 130.796875 C 347.054688 134.621094 345.332031 138.179688 343.914062 142.144531 C 342.492188 146.109375 340.246094 149.457031 339 153.457031 C 337.753906 157.457031 336.929688 161.3125 335.84375 165.382812 C 334.753906 169.453125 330.386719 172.398438 329.4375 176.554688 C 328.492188 180.710938 327.683594 184.867188 326.753906 188.832031 C 325.824219 192.796875 326.070312 197.40625 325.246094 201.460938 C 324.421875 205.511719 326.839844 210.421875 326.085938 214.492188 C 325.332031 218.558594 319.71875 221.996094 319.070312 226.066406 C 318.417969 230.132812 320.578125 234.976562 319.945312 239.042969 C 319.316406 243.113281 319.945312 247.636719 319.351562 251.722656 C 318.753906 255.8125 314.59375 259.6875 314.085938 263.753906 C 313.578125 267.824219 315.140625 272.523438 314.683594 276.578125 C 314.226562 280.628906 311.472656 284.855469 311.085938 288.851562 C 310.664062 293.183594 311.402344 297.515625 311.085938 301.570312 C 310.71875 305.9375 313.824219 310.335938 313.523438 314.40625 C 313.210938 318.808594 312.753906 322.984375 312.507812 326.980469 C 312.226562 331.4375 308.171875 335.398438 307.929688 339.363281 C 307.664062 343.886719 307.664062 348.132812 307.382812 351.972656 C 307.066406 356.65625 309.875 361.144531 309.453125 364.847656 C 308.894531 369.898438 304.085938 373.160156 303.136719 376.386719 C 301.382812 382.035156 301.382812 384.558594 297.402344 384.558594 C 294.402344 384.558594 292.945312 381.632812 290.242188 376.175781 C 288.628906 372.933594 284.664062 369.933594 283.226562 365.320312 C 282.03125 361.566406 284.15625 356.550781 283.085938 352.167969 C 282.121094 348.203125 281.015625 344.167969 280.152344 339.890625 C 279.292969 335.609375 278.980469 331.628906 278.277344 327.351562 C 277.574219 323.070312 272.453125 319.667969 271.855469 315.425781 C 271.257812 311.179688 274.066406 306.53125 273.609375 302.324219 C 273.152344 298.113281 271.488281 293.921875 271.101562 289.78125 C 270.714844 285.644531 270.417969 281.136719 270.171875 277.050781 C 269.871094 272.542969 270.558594 268.28125 270.46875 264.28125 C 270.347656 259.511719 267.292969 255.125 267.46875 251.460938 C 267.765625 245.128906 270.976562 242.851562 272.257812 241.203125 C 266.171875 242.550781 269.222656 243.289062 263.082031 248.21875 C 260.3125 250.390625 254.449219 249.96875 251.011719 253.269531 C 248.257812 255.882812 246.257812 259.878906 243.273438 263.230469 C 240.679688 266.160156 238.011719 269.351562 235.308594 272.859375 C 232.921875 276.015625 231.378906 279.996094 229.0625 283.660156 C 226.90625 287.027344 224.554688 290.414062 222.519531 294.183594 C 220.484375 297.957031 216.800781 300.570312 215.078125 304.496094 C 213.359375 308.425781 211.484375 312.039062 210.0625 316.074219 C 208.640625 320.105469 208.9375 324.421875 207.816406 328.542969 C 206.695312 332.664062 204.535156 336.277344 203.710938 340.46875 C 202.886719 344.660156 202.726562 348.730469 202.167969 352.972656 C 201.605469 357.21875 204.65625 361.445312 204.378906 365.6875 C 204.097656 369.933594 203.691406 373.773438 203.640625 377.964844 C 203.589844 382.15625 199.640625 386.261719 199.832031 390.523438 C 200.027344 394.785156 203.851562 399.292969 204.113281 403.484375 C 204.378906 407.675781 204.007812 412.394531 204.359375 416.636719 C 204.726562 421.144531 204.238281 425.601562 204.675781 429.828125 C 205.148438 434.351562 204.183594 438.894531 204.675781 443.085938 C 205.273438 447.628906 208.078125 451.660156 208.730469 455.820312 C 209.429688 460.359375 207.414062 465.167969 208.167969 469.289062 C 208.992188 473.832031 214.78125 477.164062 215.625 481.230469 C 216.589844 485.792969 213.660156 490.929688 214.625 494.910156 C 215.730469 499.542969 216.378906 503.925781 217.414062 507.820312 C 218.660156 512.554688 223.695312 515.710938 224.730469 519.464844 C 226.132812 524.5 223.816406 529.566406 224.554688 533.039062 C 225.90625 539.335938 227.363281 542.898438 225.238281 545.316406 C 223.117188 547.738281 218.21875 546.140625 213.519531 541.109375 C 210.492188 537.671875 207.683594 534.066406 205.097656 530.285156 C 202.484375 526.777344 199.675781 522.9375 197.21875 519.148438 C 194.570312 515.0625 191.796875 511.238281 189.691406 507.730469 C 185.605469 500.910156 190.585938 496.316406 183.851562 495.457031 C 177.65625 494.632812 184.023438 499.960938 183.691406 507.890625 C 183.535156 511.398438 181.515625 515.570312 181.515625 520.34375 C 181.515625 524.148438 185.289062 528.234375 185.464844 532.722656 C 185.621094 536.652344 182.128906 541.003906 182.464844 545.371094 C 182.761719 549.332031 185.65625 553.246094 186.128906 557.558594 C 186.585938 561.558594 185.183594 565.925781 185.832031 570.167969 C 186.480469 574.414062 189.183594 577.921875 189.972656 582.113281 C 190.761719 586.304688 189.640625 590.566406 190.585938 594.703125 C 191.535156 598.84375 195.113281 602.035156 196.238281 606.121094 C 197.359375 610.210938 198.324219 614.03125 199.605469 618.066406 C 200.886719 622.101562 198.308594 627.238281 199.746094 631.203125 C 201.183594 635.167969 205.851562 637.726562 207.464844 641.601562 C 209.078125 645.480469 208.007812 650.371094 209.800781 654.246094 C 211.589844 658.125 216.308594 660.246094 218.289062 663.964844 C 220.273438 667.683594 222.082031 671.242188 224.238281 674.855469 C 226.394531 678.46875 225.429688 683.90625 227.746094 687.414062 C 230.0625 690.921875 233.605469 693.515625 236.097656 696.902344 C 238.589844 700.285156 243.292969 701.707031 245.960938 704.96875 C 248.625 708.230469 251.644531 710.84375 254.46875 713.964844 C 257.292969 717.085938 258.90625 720.980469 261.890625 724.015625 C 264.871094 727.050781 267.03125 730.59375 270.171875 733.398438 C 273.3125 736.203125 275.839844 739.570312 279.117188 742.167969 C 282.398438 744.761719 287.453125 744.867188 290.855469 747.339844 C 294.261719 749.816406 296.3125 753.9375 299.839844 756.25 C 303.367188 758.566406 306.859375 760.777344 310.367188 762.914062 C 313.875 765.054688 316.964844 768.175781 320.683594 770.125 C 324.402344 772.070312 329.246094 771.5625 332.964844 773.367188 C 336.683594 775.175781 339.332031 779.382812 343.210938 781.050781 C 347.089844 782.714844 351.265625 783.332031 355.210938 784.839844 C 359.160156 786.347656 362.828125 788.171875 366.828125 789.539062 C 370.828125 790.90625 375.597656 789.539062 379.5625 790.730469 C 383.53125 791.925781 385.96875 794.449219 390.089844 795.535156 C 390.460938 789.066406 388.582031 791.203125 381.792969 786.46875 C 378.808594 784.382812 372.527344 785.644531 368.582031 782.644531 C 365.441406 780.261719 363.140625 776.105469 359.527344 773.140625 C 356.371094 770.578125 352.511719 768.421875 349 765.421875 C 345.894531 762.722656 343.949219 758.410156 340.648438 755.339844 C 337.351562 752.269531 335.261719 748.761719 332.085938 745.640625 C 328.910156 742.519531 323.734375 741.90625 320.683594 738.625 C 317.628906 735.34375 315.945312 731.363281 313.015625 728.101562 C 310.085938 724.839844 305.996094 722.839844 303.085938 719.527344 C 300.171875 716.210938 301.03125 710.476562 298.332031 706.96875 C 295.628906 703.460938 290.785156 701.953125 288.226562 698.410156 C 285.664062 694.867188 282.75 691.726562 280.3125 688.097656 C 277.875 684.464844 277.679688 679.589844 275.363281 675.820312 C 273.046875 672.050781 268.347656 670.03125 266.136719 666.242188 C 263.925781 662.457031 263.257812 657.984375 261.242188 654.125 C 259.222656 650.265625 256.433594 646.882812 254.554688 642.953125 C 252.679688 639.023438 253.414062 634.042969 251.695312 630.042969 C 249.976562 626.046875 249.539062 621.730469 247.976562 617.664062 C 246.414062 613.59375 242.714844 611.296875 241.238281 607.140625 C 247.554688 606.261719 246.503906 608.542969 253.136719 609.628906 C 256.976562 610.261719 262.152344 613.488281 266.347656 611.242188 C 270.46875 608.925781 273.78125 605.757812 276.277344 601.738281 C 277.925781 598.933594 275.890625 593.40625 275.804688 588.058594 C 275.804688 584.324219 277.558594 579.796875 276.890625 575.113281 C 276.3125 571.1875 271.976562 567.609375 271.101562 563.1875 C 270.3125 559.171875 272.503906 554.417969 271.558594 550.070312 C 270.609375 545.71875 270.3125 541.703125 269.328125 537.496094 C 268.347656 533.285156 267.574219 529.199219 266.628906 525.042969 C 265.679688 520.886719 262.136719 517.289062 261.277344 513.152344 C 260.417969 509.011719 258.800781 504.855469 258.066406 500.75 C 257.328125 496.648438 259.363281 491.789062 258.835938 487.722656 C 258.257812 483.285156 257.855469 479.144531 257.660156 475.144531 C 257.449219 470.535156 254.765625 466.148438 255.242188 462.308594 C 255.800781 457.539062 258.242188 454.539062 260.136719 451.292969 C 267.152344 452.292969 263.800781 454.996094 271.136719 459.34375 C 275.167969 461.855469 279.410156 463.949219 283.855469 465.621094 C 287.910156 467.078125 293.03125 465.746094 298.03125 466.550781 C 302.367188 467.234375 306.804688 471.058594 311.824219 470.953125 C 316.15625 470.867188 320.699219 468.445312 324.226562 465.691406 C 327.246094 463.324219 331.246094 460.429688 333.84375 456.433594 C 335.914062 453.117188 336.15625 448.1875 337.949219 443.925781 C 339.492188 440.246094 339.105469 435.597656 340.472656 431.300781 C 341.71875 427.425781 345.332031 424.054688 346.457031 419.742188 C 347.492188 415.777344 348.84375 411.675781 349.808594 407.378906 C 350.773438 403.082031 349.28125 398.609375 350.140625 394.382812 C 351 390.15625 353.964844 386.523438 354.738281 382.261719 C 355.511719 378 355.371094 373.773438 356.089844 369.511719 C 356.808594 365.25 357.089844 361.09375 357.84375 356.847656 C 358.597656 352.605469 357.28125 348.082031 357.964844 343.921875 C 358.652344 339.765625 362.476562 336.03125 363.230469 331.820312 C 363.984375 327.613281 365.125 323.507812 365.84375 319.300781 C 366.5625 315.089844 365.195312 310.53125 365.84375 306.355469 C 366.492188 302.183594 367.386719 297.9375 368.175781 293.78125 C 368.96875 289.625 368.933594 285.1875 369.773438 281.046875 C 370.617188 276.910156 370.703125 272.453125 371.632812 268.351562 C 372.5625 264.246094 376.285156 260.617188 377.320312 256.546875 C 378.355469 252.480469 380.984375 248.671875 382.160156 244.675781 C 383.335938 240.675781 381.039062 235.273438 382.390625 231.34375 C 383.738281 227.417969 387.496094 224.015625 389.089844 220.207031 C 390.84375 216.121094 393.441406 212.789062 395.371094 209.175781 C 397.460938 205.230469 397.988281 200.671875 400.355469 197.371094 C 402.96875 193.726562 406.917969 191.726562 409.917969 188.972656 C 412.917969 186.21875 415.179688 183.449219 418.917969 181.660156 C 424.496094 184.410156 422.128906 184.5 424.8125 191.953125 C 426.003906 195.25 425.199219 200.019531 426.902344 204.441406 C 428.25 207.949219 428.375 212.457031 430.058594 216.613281 C 431.515625 220.242188 437.078125 222.433594 438.832031 226.46875 C 440.375 230.132812 442.691406 233.625 444.429688 237.554688 C 446.164062 241.480469 447.707031 245.007812 449.5 248.882812 C 451.289062 252.757812 449.5 257.914062 451.410156 261.722656 C 453.324219 265.527344 456.253906 268.527344 458.164062 272.246094 C 460.078125 275.960938 461.957031 279.558594 463.921875 283.277344 C 465.886719 286.992188 469.324219 289.710938 471.378906 293.359375 C 473.429688 297.007812 475.886719 300.253906 478.007812 303.882812 C 480.132812 307.515625 480.851562 311.8125 483.042969 315.355469 C 485.238281 318.894531 487.132812 322.578125 489.429688 326.035156 C 491.730469 329.488281 492.238281 334.207031 494.695312 337.59375 C 497.152344 340.976562 502.625 342.082031 505.132812 345.363281 C 507.640625 348.640625 509.921875 352.097656 512.574219 355.289062 C 515.222656 358.480469 518.273438 361.25 521.046875 364.304688 C 523.820312 367.355469 525.46875 371.527344 528.378906 374.421875 C 531.292969 377.316406 533.082031 381.4375 536.03125 384.664062 C 538.976562 387.890625 541.785156 390.664062 544.523438 394.082031 C 547.257812 397.503906 548.699219 401.34375 551.257812 404.851562 C 553.820312 408.359375 559.261719 409.480469 561.679688 413.078125 C 564.101562 416.671875 564.996094 420.988281 567.261719 424.652344 C 569.523438 428.316406 572.382812 431.441406 574.523438 435.175781 C 576.664062 438.910156 579.789062 442 581.753906 445.785156 C 583.71875 449.574219 584.453125 453.941406 586.332031 457.800781 C 588.210938 461.660156 588.226562 466.21875 589.964844 470.078125 C 591.699219 473.9375 596.246094 476.601562 597.859375 480.601562 C 599.472656 484.597656 598.527344 489.371094 600 493.4375 C 601.472656 497.507812 603.226562 501.277344 604.5625 505.3125 C 605.894531 509.34375 606.316406 513.640625 607.4375 517.730469 C 608.5625 521.816406 611.597656 525.375 612.703125 529.496094 C 613.808594 533.617188 615.4375 537.636719 616.316406 541.773438 C 617.195312 545.914062 618.195312 550.121094 618.894531 554.3125 C 619.597656 558.503906 619.507812 562.855469 620.019531 567.0625 C 620.527344 571.273438 619.492188 575.675781 619.824219 579.902344 C 620.160156 584.128906 618.175781 588.425781 618.296875 592.671875 C 618.421875 596.914062 623.140625 601.125 623.054688 605.367188 C 622.964844 609.613281 617.789062 613.59375 617.457031 617.839844 C 617.125 622.082031 618.265625 626.328125 617.71875 630.535156 C 617.175781 634.746094 617.105469 638.972656 616.316406 643.144531 C 615.527344 647.320312 613.878906 651.230469 612.808594 655.421875 C 611.738281 659.613281 613.191406 664.332031 611.914062 668.402344 C 610.632812 672.46875 607.070312 675.679688 605.542969 679.660156 C 604.015625 683.640625 603.667969 688.027344 601.894531 691.9375 C 600.121094 695.847656 598.964844 699.988281 596.929688 703.757812 C 594.894531 707.527344 590.683594 709.878906 588.417969 713.511719 C 586.15625 717.140625 585.910156 722 583.402344 725.488281 C 580.894531 728.980469 577.191406 731.523438 574.488281 734.871094 C 579.332031 738.992188 578.664062 732.644531 585.015625 727.574219 C 587.804688 725.347656 589.523438 721 593.015625 717.578125 C 595.769531 714.894531 602.15625 715.035156 605.175781 711.527344 C 607.753906 708.527344 610.191406 704.792969 612.859375 701.164062 C 615.246094 697.917969 616.789062 693.707031 619.175781 689.921875 C 621.335938 686.5 622.914062 682.46875 625.019531 678.574219 C 626.964844 674.976562 627.667969 670.609375 629.527344 666.613281 C 631.28125 662.910156 632.019531 658.703125 633.632812 654.632812 C 635.246094 650.566406 639.632812 647.96875 641.039062 643.8125 C 642.335938 639.917969 641.632812 635.234375 642.792969 631.042969 C 643.949219 626.851562 645.457031 623.117188 646.441406 618.855469 C 647.421875 614.59375 648.757812 610.789062 649.5625 606.578125 C 650.371094 602.367188 651.898438 598.457031 652.527344 594.160156 C 653.160156 589.863281 652.25 585.65625 652.722656 581.339844 C 653.195312 577.027344 652.230469 572.90625 652.527344 568.589844 C 652.828125 564.277344 652.109375 560.222656 652.265625 555.890625 C 652.421875 551.558594 654.667969 547.597656 654.703125 543.265625 C 654.738281 538.933594 655.40625 534.757812 655.265625 530.550781 C 655.125 526.339844 652.878906 522.199219 652.5625 518.007812 C 652.25 513.816406 654.527344 509.242188 654.039062 505.117188 C 653.546875 500.996094 653.652344 496.558594 653.003906 492.386719 C 652.355469 488.210938 649.597656 484.351562 648.792969 480.214844 C 647.984375 476.074219 645.371094 472.304688 644.421875 468.199219 C 643.476562 464.097656 641.984375 460.148438 640.914062 456.082031 C 639.84375 452.011719 641.300781 447.171875 640.070312 443.136719 C 638.84375 439.105469 637.421875 435.070312 636.070312 431.089844 C 634.722656 427.109375 630.808594 424.074219 629.316406 420.039062 C 627.824219 416.007812 628.527344 411.269531 626.929688 407.378906 C 625.335938 403.484375 622 400.273438 620.316406 396.433594 C 618.632812 392.59375 617.492188 388.417969 615.683594 384.613281 C 613.878906 380.804688 611.367188 377.316406 609.492188 373.546875 C 607.613281 369.773438 606.578125 365.511719 604.597656 361.8125 C 602.613281 358.113281 601.085938 354.042969 599.050781 350.378906 C 597.015625 346.710938 597.085938 341.609375 594.964844 338.101562 C 592.839844 334.59375 590.472656 330.820312 588.28125 327.246094 C 586.085938 323.667969 582.734375 320.613281 580.507812 317.089844 C 578.277344 313.566406 575.664062 310.074219 573.382812 306.566406 C 571.101562 303.058594 566.820312 300.671875 564.507812 297.21875 C 562.191406 293.761719 559.714844 290.203125 557.363281 286.695312 C 555.015625 283.1875 552.347656 279.769531 549.980469 276.382812 C 547.609375 273 544.714844 269.628906 542.277344 266.261719 C 539.835938 262.894531 538.925781 258.074219 536.59375 254.742188 C 534.046875 251.109375 530.414062 248.460938 528.136719 245.148438 C 525.574219 241.429688 526.378906 235.816406 524.203125 232.503906 C 521.679688 228.609375 516.308594 226.925781 514.433594 223.609375 C 512.308594 219.875 509.976562 216.382812 507.941406 212.804688 C 505.90625 209.230469 506.046875 204.140625 504.027344 200.53125 C 502.011719 196.917969 499.34375 193.515625 497.394531 189.796875 C 495.449219 186.078125 495.097656 181.21875 493.34375 177.433594 C 491.589844 173.644531 490.167969 169.800781 488.484375 165.910156 C 486.800781 162.015625 483.746094 158.894531 482.253906 154.914062 C 480.761719 150.929688 477.132812 147.898438 475.832031 143.777344 C 474.535156 139.652344 476.167969 135.007812 475.0625 130.851562 C 473.957031 126.691406 470.640625 123.414062 469.796875 119.167969 C 468.9375 115.207031 471.21875 110.488281 470.464844 106.207031 C 469.746094 102.210938 467.339844 98.367188 466.726562 94.070312 C 466.148438 90.054688 467.710938 85.636719 467.203125 81.320312 C 466.746094 77.289062 463.851562 73.394531 463.445312 69.042969 C 463.078125 64.992188 464.167969 60.695312 463.867188 56.382812 C 463.570312 52.066406 459.746094 48.332031 459.515625 44 C 459.289062 39.667969 463.691406 35.527344 463.550781 31.214844 C 463.410156 26.898438 463.445312 22.953125 463.339844 18.640625 C 463.234375 14.324219 461.761719 9.132812 461.761719 4.820312 Z M 461.761719 4.820312 " fill-opacity="1" fill-rule="nonzero"/></g></svg>